<svg xmlns="http://www.w3.org/2000/svg" viewBox="0 0 326 289.84"><defs><style>.cls-1{fill-rule:evenodd;}</style></defs><title>logo-black</title><g id="Layer_1" data-name="Layer 1"><path class="cls-1" d="M314.78,166.13H87.52c-7.1,0-12.9,8.11-12.9,18h0v18H314.78c7.1,0,12.9-8.11,12.9-18h0v-17.7S318.72,166.13,314.78,166.13Z" transform="translate(-38.4 -57.98)"/><path class="cls-1" d="M351.27,225.09H51.53c-7.22,0-13.13,8.11-13.13,18h0v18H351.27c7.22,0,13.13-8.11,13.13-18h0V225S354.88,225.09,351.27,225.09Z" transform="translate(-38.4 -57.98)"/><path class="cls-1" d="M278.23,108.42H124.57c-7.59,0-13.8,8-13.8,17.86h0v17.86H278.23c7.59,0,13.8-8,13.8-17.86h0V108.42Z" transform="translate(-38.4 -57.98)"/><path class="cls-1" d="M241.36,58H161.44c-7.59,0-13.8,7.38-13.8,16.41h0V90.8h93.72c7.59,0,13.8-7.38,13.8-16.41h0V58Z" transform="translate(-38.4 -57.98)"/><path d="M194,347.82h23.76a1.62,1.62,0,0,0,1.62-1.62V289.47a3.68,3.68,0,0,0-3.67-3.68l-19.65,0a3.68,3.68,0,0,0-3.68,3.68V346.2A1.62,1.62,0,0,0,194,347.82Z" transform="translate(-38.4 -57.98)"/></g></svg>