<svg id="tattoo3_Image" data-name="tattoo3 Image" xmlns="http://www.w3.org/2000/svg" viewBox="0 0 1477.87 2788.7"><defs><style>.cls-1{fill:#fff;}</style></defs><title>Artboard 1</title><path d="M546.22,560.89c.77.12,1.09.69,1.35,1.32,2.1,5.12,4.18,10.24,6.3,15.35.64,1.54,1.37,3,2.12,4.67.54-.42,1.06-.63,1.24-1,.74-1.5,1.39-3,2-4.59l93-219.44q7.84-18.52,15.7-37c.44-1,.61-2.32,1.85-2.88,1.08.64,1.41,1.81,1.94,2.82q4.89,9.36,9.76,18.73c.38.73.73,1.52,1.66,1.74a4.33,4.33,0,0,0,1.15-2.7q3.16-16.8,6.27-33.61,3.28-17.54,6.57-35.08,3.24-17.29,6.5-34.59Q707,216.83,710.29,199c.83-4.45,1.63-8.9,2.47-13.35.31-1.64.72-3.26,1.13-5.11.53.48,1,.72,1.16,1.09.52,1.23.95,2.51,1.38,3.77L790,403.08c.48,1.43.94,2.87,1.47,4.28a2,2,0,0,0,1.17,1.45c1-.71,1.33-1.88,1.79-2.95q5.48-12.69,11-25.38a32.67,32.67,0,0,1,1.59-3.11c.1-.18.53-.19.95-.32.63,1.55,1.3,3.08,1.89,4.64q18.23,47.93,36.44,95.87,9.73,25.61,19.45,51.23c.47,1.25,1.06,2.45,1.62,3.66a.75.75,0,0,0,1.22.1c.71-1.33,1.45-2.64,2.1-4q13.11-27.45,26.19-54.92c1.44-3,2.89-6.05,4.38-9,.18-.35.7-.53,1.24-.92.54,1.41,1,2.64,1.5,3.89q25,67.94,50,135.88,38.26,104,76.51,208.08c.46,1.26.89,2.53,1.43,3.76.18.41.67.68,1,1,1.35-.69,1.92-2,2.69-3,2.67-3.66,5.28-7.35,7.92-11a1.92,1.92,0,0,1,1.66-1,19.57,19.57,0,0,1,2.53,4.81q11.55,24.85,23.08,49.71l46.36,99.88c.78,1.67,1.55,3.34,2.37,5a2.33,2.33,0,0,0,1.86,1.44c.55.08,1.1.72,1.48,1.23.78,1.09,1.45,2.26,2.15,3.4l175.28,283.68c1,1.57,1.92,3.15,2.93,4.69a13.18,13.18,0,0,0,1.25,1.44c1.76-.49,2.08-2.3,3.37-3.06.23-.14.79-.14.9,0a21.34,21.34,0,0,1,1.6,2.53q14.21,26.62,28.39,53.25c11,20.56,22,41.08,32.84,61.71,4.12,7.86,8,15.83,12.21,23.67.16.3.29.6.43.91.43,1,0,1.76-.92,1.78-2,0-4,0-6,.08a22.87,22.87,0,0,0-2.39.32c-.93,2-.9,4.07-1.08,6.06a173.18,173.18,0,0,1-9.16,42.65,124.24,124.24,0,0,1-12.93,26.62,83.07,83.07,0,0,1-12.44,15.11,58.33,58.33,0,0,1-10.83,8.14,42.42,42.42,0,0,1-17.09,5.54,36.09,36.09,0,0,1-14.39-1.7,43.53,43.53,0,0,1-13.76-7.15,1.69,1.69,0,0,1-.57-2.22c1.86-4.49,3.86-8.93,5.56-13.48a201.06,201.06,0,0,0,10.34-39.83,223.5,223.5,0,0,0,2.73-36.07,19.7,19.7,0,0,0-.29-3c0-.27-.41-.5-.66-.71a.8.8,0,0,0-.47-.15c-2.67,0-5.35,0-8,0a1.49,1.49,0,0,0-1.3,1.31c-.07,1-.12,2-.14,3-.07,3.69,0,7.38-.2,11.07-1.3,27.82-7.68,54.36-20.28,79.28a146,146,0,0,1-28.53,39.31,108.08,108.08,0,0,1-35.45,23.4,88.88,88.88,0,0,1-33.86,6.46,89.86,89.86,0,0,1-35.16-7.52,109.23,109.23,0,0,1-33.07-22.52,148.29,148.29,0,0,1-29.8-42.06,186.51,186.51,0,0,1-15.31-46.68,213.17,213.17,0,0,1-3.82-40,35.65,35.65,0,0,0-.28-4,1.11,1.11,0,0,0-.65-.7,4.38,4.38,0,0,0-1.47-.25c-1.84,0-3.69,0-5.53,0-2.1,0-2.67.59-2.71,2.72,0,2.51,0,5,0,7.54.19,7.21.52,14.41,1.42,21.57,3.42,27.26,11.3,53.05,25.22,76.85a150.31,150.31,0,0,0,31.08,38,14.22,14.22,0,0,1,1.74,1.8,1,1,0,0,1,0,.93,8.33,8.33,0,0,1-1.29,1.52,72.22,72.22,0,0,1-31,16.91,70.7,70.7,0,0,1-26,1.85,71.76,71.76,0,0,1-62.73-56.23,67.43,67.43,0,0,1-1.42-16,3.09,3.09,0,0,1,2.12-3,49.17,49.17,0,0,0,9.09-5.34,67,67,0,0,0,12.56-12.26,100.87,100.87,0,0,0,14.25-24.76,143.1,143.1,0,0,0,9.46-35.35c.61-4.48,1-9,1.53-13.49a6.7,6.7,0,0,0-.16-2,1.08,1.08,0,0,0-.59-.73,21.88,21.88,0,0,0-8.93,0c-.67.11-1,.88-1,1.58-.35,3.33-.64,6.68-1.06,10a135.38,135.38,0,0,1-11.06,40.06,86.57,86.57,0,0,1-10.94,18,54,54,0,0,1-11.22,10.76,36.16,36.16,0,0,1-12.25,5.66,29.36,29.36,0,0,1-16.35-.75,36.48,36.48,0,0,1-9.79-5.05A54.4,54.4,0,0,1,936.05,1468a86.75,86.75,0,0,1-11-18,128.81,128.81,0,0,1-9.05-27.65,163.16,163.16,0,0,1-3.06-21.39,6.61,6.61,0,0,0-.34-2,1.69,1.69,0,0,0-1-.95,33.79,33.79,0,0,0-8-.18,1.69,1.69,0,0,0-1.47,1.73c.28,3.51.46,7,.91,10.52a155,155,0,0,0,10.2,39.82,8,8,0,0,1,.39,1.43c0,.12-.09.3-.19.41s-.29.24-.39.21a23.88,23.88,0,0,1-2.32-.91,68.06,68.06,0,0,0-17.62-5.77,71.05,71.05,0,0,0-13-.94c-1.17,0-2.35.1-3.52.12-1.47,0-2-.69-1.61-2.29.11-.49.27-1,.39-1.46a192.37,192.37,0,0,0,4.12-22.23,138.63,138.63,0,0,0,1.39-17c0-.83-.07-1.67-.13-2.5a1.54,1.54,0,0,0-1.36-1.24c-2.18-.06-4.35-.1-6.53-.11a4.56,4.56,0,0,0-1.47.25,1.31,1.31,0,0,0-.7.62,4.46,4.46,0,0,0-.39,1.44c-.21,2.34-.38,4.68-.55,7-2.45,33-12.67,63.29-31.41,90.6a157.85,157.85,0,0,1-50.14,47.22,141,141,0,0,1-45.85,17.36,134,134,0,0,1-34.55,2.12A140.74,140.74,0,0,1,642,1542.77a159.93,159.93,0,0,1-48.73-48,178.87,178.87,0,0,1-25.49-60.33,176.62,176.62,0,0,1-4.24-30.85c-.09-2-.26-4-.43-6-.11-1.27-.72-1.94-1.83-2-3.52,0-7,0-10.56,0a2.92,2.92,0,0,0-.93.35,8.73,8.73,0,0,0-.95,4.37,143.18,143.18,0,0,1-2.24,17.45,140.16,140.16,0,0,1-11,34.89,99.64,99.64,0,0,1-10.91,18A68.54,68.54,0,0,1,512,1483.59a45.51,45.51,0,0,1-17.47,8.56,38,38,0,0,1-22.71-1.63,49.89,49.89,0,0,1-14.53-8.86,74.63,74.63,0,0,1-13-14.65,114.88,114.88,0,0,1-14.34-29.8,153.68,153.68,0,0,1-6.24-27.92q-.67-5.25-1-10.51a18.41,18.41,0,0,0-.3-2,1.86,1.86,0,0,0-1.4-1.27c-1.51-.06-3-.12-4.52-.11-4.85,0-5,.06-4.6,4.64,1.49,18.68,5.35,36.79,13,54a111.61,111.61,0,0,0,14.31,24.17A77.43,77.43,0,0,0,455,1493.58a55.85,55.85,0,0,0,19,8.92,47.63,47.63,0,0,0,22.9.19c1.14-.27,2.29-.51,3.44-.74a1.51,1.51,0,0,1,1.58,1c.26.79.48,1.61.74,2.4a63,63,0,0,0,8.21,16.62c9.91,14.09,23.36,22.82,40.2,26.35,1.8.38,3.63.59,5.45.92a1.38,1.38,0,0,1,1.07,1.47,13.75,13.75,0,0,1-.21,1.49c-6.69,26.64-19.45,49.87-39.2,69.07a125.69,125.69,0,0,1-56.62,32.21,116.42,116.42,0,0,1-25.81,3.8c-36,1.14-66.67-11.38-92.42-36.15-19.85-19.09-32.53-42.42-39.11-69.09a141,141,0,0,1-4.2-34.36c0-1.16.09-2.33.14-3.5.56-.52,1-1,1.54-1.4a92.77,92.77,0,0,0,20.58-21.9,138.68,138.68,0,0,0,16.09-31.76,177.92,177.92,0,0,0,9.26-38c.6-4.65,1.11-9.32,1.61-14a4.06,4.06,0,0,1,1.65-3c2.93-2.24,5.86-4.48,8.76-6.75a3.86,3.86,0,0,0,.82-1.16c.06-.1,0-.35-.15-.46a.66.66,0,0,0-.44-.18q-9.55,0-19.1-.07a1.6,1.6,0,0,0-1.72,1.46c-.25,3.18-.47,6.35-.69,9.53A175.77,175.77,0,0,1,325.16,1463a117.24,117.24,0,0,1-14.72,25.68,80.8,80.8,0,0,1-12.8,13.45,56.31,56.31,0,0,1-13.62,8.47,43.62,43.62,0,0,1-36.1-.17,59.81,59.81,0,0,1-17-11.56,90,90,0,0,1-13.14-15.84,130,130,0,0,1-14-28.35,173.48,173.48,0,0,1-8.5-35.12,202.36,202.36,0,0,1-1.88-21,6.3,6.3,0,0,0-.27-2,1.56,1.56,0,0,0-1-.93c-2.67-.11-5.35-.13-8-.14a1.69,1.69,0,0,0-1.58,1.66c-.08.83-.12,1.67-.18,2.51-.09,1.34-.15,2.68-.26,4a12,12,0,0,1-2.76,6.84,128,128,0,0,0-14.88,23.26c-1.14,2.24-2.23,4.51-3.2,6.83a6,6,0,0,1-3.06,3.15,26.85,26.85,0,0,1-24.69.24,36,36,0,0,1-12.37-10.09,54.64,54.64,0,0,1-10.07-20.09,62,62,0,0,1-2.35-16.38c0-1.5-.1-3-.19-4.51a1.55,1.55,0,0,0-1.35-1.28c-1.67-.08-3.35-.12-5-.2a17.16,17.16,0,0,1-2.48-.27.91.91,0,0,1-.41-.78,27.42,27.42,0,0,1,1.67-3.08q6.39-9.94,12.82-19.86l51.3-79.44c.82-1.27,1.62-2.55,2.49-3.78a6,6,0,0,1,1.26-1c2,3.58,2.87,7.57,4.8,11.21.51-.24,1.08-.32,1.32-.64.8-1.07,1.51-2.22,2.21-3.36q45.43-73,90.81-146.08c11.74-19,23.1-38.14,34.61-57.24Q367,980.34,431.32,873.5c.61-1,1.17-2,1.82-3a34.71,34.71,0,0,0,3.66-7.69q11.67-32.4,23.37-64.79Q502.09,681.93,544,565.85C544.65,564.16,545,562.31,546.22,560.89ZM332,1058.36c.32-.28.44-.2.32.23a1.32,1.32,0,0,1-.39-.08q.54-.21.15.16Zm2.87-5.22c-.08.79-.17,1.57-.25,2.35l-.22.18-.09-.21.18.15a3.36,3.36,0,0,0,.33-2.49l2.23-.24c0-.44,0-.88,0-1.32s-.1-1.17-.15-1.75c.78-.63.83-.76.86-2a2.18,2.18,0,0,0,2.13.05c.19-1,.77-2.09-.14-3.08a1.46,1.46,0,0,0,2.06-.66,2.85,2.85,0,0,0,.53-1.84c.29-.13.7-.18.86-.4.88-1.23,1.71-2.48,2.52-3.75l30.61-47.89c.81-1.27,1.6-2.56,2.49-3.78.25-.35.81-.48,1.34-.78.54,1.16,1.06,2.21,1.51,3.28,2.37,5.55,4.72,11.1,7.09,16.65.66,1.54,1.35,3.07,2,4.59a1.08,1.08,0,0,0,1.68.32c1.84-2.17,3.68-4.34,5.48-6.55L485,897.11,569.85,793c1.16-1.43,2.33-2.86,3.46-4.32a2.22,2.22,0,0,0,.31-2.37c-.9-2-1.83-4-2.75-5.93q-14.23-30.26-28.48-60.51c-.71-1.51-1.52-3-2.3-4.45a.9.9,0,0,0-1.3-.12c-.91,1.4-1.85,2.78-2.72,4.21Q481.67,809.74,427.3,900q-41.13,68.29-82.24,136.59c-.86,1.44-1.75,2.86-2.54,4.34a3.86,3.86,0,0,0-.12,1.46,1.2,1.2,0,0,0-1.14.63c-.47.62-1,1.24-1.39,1.9a3.37,3.37,0,0,0,0,3c-.7-.5-1.4-.17-2.11,0A3.2,3.2,0,0,1,337,1050a2,2,0,0,0,.06,2c.13.2,0,.55,0,.82Zm928.49,271.57a3.33,3.33,0,0,0-.11.42c-.06.41.07.56.36.45-.06-.13-.12-.25-.18-.38s-.1-.26-.14-.4c-.59-1.74-1.11-3.51-1.77-5.23q-30.59-80.82-61.21-161.62-6.23-16.44-12.49-32.88a6.9,6.9,0,0,0-1.69-3.12,4.22,4.22,0,0,0-1.15.83c-.76,1.1-1.43,2.27-2.12,3.42l-19.1,31.91-57,95.31c-.86,1.44-1.73,2.87-2.53,4.34a2.8,2.8,0,0,0-.11,2.43c.25.62.52,1.24.78,1.85,2.54,5.84,5.06,11.68,7.64,17.5.39.88.48,2.19,1.59,2.4,1.52.28,1.71-1.32,2.34-2.18,1-1.35,1.84-2.8,2.75-4.21L1176.9,1186c1-1.54,2-3,3-4.51.49.14.94.13,1.08.33.84,1.25,1.65,2.51,2.39,3.82q28.26,49.84,56.49,99.69,9.91,17.49,19.85,35c.82,1.45,1.76,2.83,2.71,4.21C1262.58,1324.67,1263.05,1324.62,1263.34,1324.7Zm-344.86-629a5.89,5.89,0,0,0-.46.71c0,.07.12.22.19.33s.23-.95.23-1c-.57-1.39-1.17-2.77-1.71-4.18q-45.2-118.87-90.39-237.75-8.57-22.55-17.15-45.11c-.53-1.4-1.2-2.75-1.87-4.09-.07-.14-.74-.19-.79-.09-.79,1.47-1.59,2.93-2.25,4.46q-15,34.61-29.88,69.23Q755.65,521.62,736.92,565c-.73,1.68-1.36,3.4-2,5,.34,1,.57,1.82.87,2.59q11.81,30.47,23.63,60.93a11.56,11.56,0,0,0,.76,1.85,2.82,2.82,0,0,0,1.1.93c.12.06.56-.29.71-.55q1.13-2,2.18-4,8.44-16,16.88-32l19.2-36.49c.7-1.33,1.42-2.66,2.19-4a1.14,1.14,0,0,1,.8-.47,1,1,0,0,1,.76.41c.67,1.35,1.31,2.72,1.9,4.1q12.72,29.83,25.42,59.66,4.53,10.64,9.08,21.27a26.47,26.47,0,0,0,1.63,3.09.93.93,0,0,0,.88,0,18,18,0,0,0,1.73-2.43c4.68-8.14,9.32-16.3,14-24.43.66-1.14,1.06-2.5,2.42-3.24,1.53,1.07,2.35,2.76,3.4,4.23q24.65,34.93,49.27,69.88c1,1.37,2,2.7,3,4C917.23,696.14,917.88,695.95,918.47,695.73ZM634.55,951c1.57,1.19,2.4,2.87,3.45,4.37q21.45,30.72,42.87,61.46,29.91,42.9,59.84,85.8c1,1.37,2,2.7,3,4a.86.86,0,0,0,1.3,0c.57-.82,1.17-1.63,1.68-2.49q4.76-8,9.48-16l4.35-7.36a2.78,2.78,0,0,0,.18-2.86c-.54-1-1.06-2.09-1.6-3.14L604.78,775.34c-.69-1.34-1.43-2.65-2.17-4a1.11,1.11,0,0,0-1.71-.25c-1,1.14-2,2.27-2.93,3.44L422.6,989.82Q411,1004,399.41,1018.29c-.95,1.17-1.87,2.36-2.72,3.61a1.93,1.93,0,0,0-.21,1.43,27.16,27.16,0,0,0,1.19,3.3q3.92,9.26,7.88,18.5l15.94,37.47c.46,1.08.89,2.17,1.37,3.24.27.61.53,1.4,1.26,1.43,1.09,0,1-1.09,1.33-1.75a25,25,0,0,0,1-2.85l12.64-38.17q2.53-7.63,5.06-15.26a2.53,2.53,0,0,1,1.31-1.6,15.62,15.62,0,0,1,2.87,4l51,81.41c.8,1.28,1.59,2.56,2.45,3.81a6.52,6.52,0,0,0,1.13,1,6.31,6.31,0,0,0,1.24-.88c1-1.15,1.91-2.34,2.83-3.53L630.18,955.68c1-1.32,2.06-2.65,3.15-3.92A5,5,0,0,1,634.55,951Zm82.51,432.63H862.41c1.51,0,3,0,4.53,0a14.82,14.82,0,0,0,1.49-.17.91.91,0,0,0,.6-1.15c-.77-1.29-1.52-2.6-2.36-3.85Q799.32,1278.28,732,1178.15c-.75-1.11-1.51-2.22-2.29-3.3a1.28,1.28,0,0,0-2.11-.08q-1.45,1.74-2.84,3.52l-48.33,61.79L568,1378.73c-.82,1.05-1.61,2.14-2.39,3.23a1,1,0,0,0,.63,1.51c1.84.06,3.68.13,5.52.13Zm-172.37-91.87c-.88-1.83-1.58-3.35-2.33-4.84l-87.05-173.38c-.53-1-1-2.12-1.61-3.12a5.44,5.44,0,0,0-1.13-1c-1.65,1.35-2.47,3.23-3.54,4.91q-36.65,57.72-73.26,115.46l-49.54,78.12c-.9,1.41-1.78,2.84-2.59,4.3a2.06,2.06,0,0,0-.15,1.44c.34,1.12.82,2.2,1.26,3.28l14.13,34.94c3.51,8.7,7,17.41,10.55,26.09.63,1.53,1,3.24,2.48,4.59,1.13.06,2.46.17,3.78.18q31.93.27,63.86.5c6.95,0,5.45.72,9.6-4.52q31.54-39.81,63-79.65c1-1.31,2.08-2.63,3.18-3.89a4.8,4.8,0,0,1,1.39-.72c.9,1.3,1.77,2.52,2.59,3.78q8.76,13.49,17.5,27c.82,1.26,1.66,2.52,2.52,3.76.59.85,1.51.93,2,.18s.94-1.39,1.38-2.1q10-16,20-32C543.39,1294.05,543.95,1293,544.69,1291.74Zm753.11-25.47a27.49,27.49,0,0,0-3-5.36Q1225.7,1149,1156.57,1037.17q-15.86-25.67-31.72-51.34c-.79-1.28-1.66-2.51-2.51-3.75a.83.83,0,0,0-1.28,0c-.93,1.39-1.89,2.77-2.76,4.19q-30.08,49.1-60.14,98.2-13.92,22.73-27.82,45.47a21.36,21.36,0,0,0-2.68,5c.63,1.48,1.27,3,2,4.54q7.56,16.72,15.13,33.44,8,17.63,16,35.26a21,21,0,0,0,1.46,2.62.89.89,0,0,0,.84,0,12.19,12.19,0,0,0,1.51-2c2.83-4.75,5.63-9.52,8.43-14.29a2.13,2.13,0,0,1,1.64-1.22c.42.84.89,1.71,1.29,2.62q2.95,6.67,5.86,13.35c4.83,11.06,9.63,22.13,14.49,33.17.59,1.35.89,2.92,2.28,3.89a5.54,5.54,0,0,0,1.1-1c.83-1.26,1.6-2.56,2.37-3.85l73.07-122.11c3.61-6,7.2-12.1,10.85-18.12.59-1,1-2.18,2.22-2.73a5.62,5.62,0,0,1,.86,1.11c.54,1.23,1,2.48,1.48,3.74q21.72,57.35,43.44,114.7,15.94,42.07,31.92,84.12c.47,1.25,1,2.47,1.55,3.69.17.38,1,.41,1.33.06a14,14,0,0,0,1-1.11q13.44-18.21,26.85-36.44A22.15,22.15,0,0,0,1297.81,1266.27Zm-392.4-33.69c.36.29.85.53,1.08.92.75,1.3,1.42,2.66,2.11,4q18.55,36.52,37.09,73c3.41,6.71,2.76,6.83,7.09.17q11.65-17.91,23.29-35.82c.82-1.26,1.72-2.47,2.6-3.68a.83.83,0,0,1,1.28.07c.5,1.06,1,2.11,1.46,3.19q7.89,19.3,15.76,38.62c.51,1.24,1,2.5,1.56,3.71.2.41.69.69,1.05,1,1.5-1,2.08-2.67,2.91-4.1q25.41-43.08,50.78-86.19c3.16-5.37,3.09-3.79.48-9.57q-31.88-70.52-63.79-141c-.55-1.22-1.16-2.42-1.76-3.61a1,1,0,0,0-1.64-.19c-1.28,1.55-2.56,3.1-3.79,4.68l-126.63,163.3q-17.1,22.05-34.19,44.11c-1,1.31-2.28,2.47-2.79,4.3.47.78.94,1.67,1.5,2.49q10.65,15.86,21.33,31.7.56.83,1.16,1.64a1.24,1.24,0,0,0,2.08.14c.94-1.38,1.88-2.78,2.78-4.19l34.91-54.65q9.88-15.46,19.78-30.91C903.61,1234.64,904.14,1233.36,905.41,1232.58Zm-303-185c1.35,1.24,1.7,2.94,2.33,4.45q30.33,72.33,60.61,144.67,4.86,11.59,9.74,23.17a4.88,4.88,0,0,0,1.23,2.14c.32.26.64.35.9.06,1-1.11,2-2.21,3-3.39q22.79-29.11,45.56-58.24c.93-1.19,1.91-2.33,2.88-3.48a.77.77,0,0,1,1.25.05c.6.8,1.21,1.6,1.77,2.43q6.61,9.8,13.2,19.61,11,16.27,21.91,32.54c.83,1.23,1.45,2.66,2.75,3.49,1.16-.28,1.52-1.28,2-2.14,4.09-7.12,8.22-14.22,12.23-21.39,3.29-5.9,3.56-4.23-.51-10.06Q716.52,1085.74,649.78,990q-6.47-9.28-12.95-18.57c-.67-1-1.39-1.88-2.11-2.8a1.09,1.09,0,0,0-1.72.07c-1,1.16-1.91,2.33-2.84,3.52L575.65,1042,490.8,1150.61c-.83,1.06-1.65,2.12-2.42,3.21a2.36,2.36,0,0,0-.18,2.39c.33.77.7,1.52,1.08,2.27q7,13.93,14,27.86c.38.75.79,1.48,1.2,2.21a1.11,1.11,0,0,0,1.7.22c1.08-1.49,2.16-3,3.2-4.51l89.29-132.09c.84-1.25,1.68-2.51,2.58-3.72A5.39,5.39,0,0,1,602.41,1047.56Zm259.66-411.2a4.45,4.45,0,0,0-1.18.87c-.74,1.11-1.39,2.29-2.05,3.45q-22.09,38.61-44.17,77.23c-1.15,2-2.59,3.9-3.19,6.2,1.24,2.38,3.9,3,5.76,4.63.63.55,1.36,1,2,1.48,27.91,20.73,46.52,47.8,55.55,81.42a146.36,146.36,0,0,1,4.56,28.74,125.43,125.43,0,0,1-.16,19.09,144.93,144.93,0,0,1-3.42,22.33,6.45,6.45,0,0,0,.61,4.84c3.86,7.24,7.61,14.55,11.41,21.82a18,18,0,0,0,1.08,1.68,1.43,1.43,0,0,0,1.82.13c.95-1.17,1.92-2.32,2.79-3.54q14.28-20.07,28.53-40.17l24.15-34c.87-1.23,1.75-2.45,2.66-3.66s1.71-1.1,2.33,0,1.33,2.33,2,3.51l18,33.13q5,9.28,10.08,18.55a12.23,12.23,0,0,0,1.43,2,.89.89,0,0,0,.87,0,13,13,0,0,0,1.65-1.86q12.13-17,24.22-34c.58-.81,1-1.69,1.51-2.44a4.36,4.36,0,0,0-.34-1.13Q936.88,742,863.19,637.45A8.32,8.32,0,0,0,862.07,636.37Zm310.39,748.9h108.11c3.37,0,4.18-.35,2.29-3.54-.85-1.44-1.66-2.91-2.49-4.37L1198.6,1233q-8.18-14.43-16.37-28.85a26,26,0,0,0-2-2.87.89.89,0,0,0-.85,0c-1,1.32-2,2.66-2.92,4.06q-20.59,31.89-41.13,63.8c-13.66,21.3-27.48,42.49-40.87,64-9.49,15.21-19.4,30.16-29.06,45.26-1.23,1.93-3,3.6-3.24,6.06-.06.72.55.78,7.2.78ZM835,1104.06c.56,1,1.18,2,1.72,3q3.91,7.31,7.78,14.64,14.48,27.31,29,54.61a23.74,23.74,0,0,0,2.9,4.84c.76.07,1.59.21,2.41.21,2.85,0,5.7-.13,8.55-.08a4.61,4.61,0,0,0,4.25-2.12c.56-.83,1.23-1.59,1.85-2.38q14.32-18.48,28.64-37c4.15-5.36,3.92-3.94,1.58-10.26q-24.52-66.19-49.1-132.36l-18-48.51c-.41-1.1-.81-2.2-1.25-3.29-.24-.6-.55-1.33-1.25-1.34-.37,0-.84.52-1.11.91-.74,1.11-1.41,2.28-2.09,3.43l-69.94,118q-13.71,23.13-27.4,46.28c-.85,1.43-1.93,2.75-2.3,4.68.74,1.12,1.54,2.39,2.39,3.62q17.81,25.57,35.64,51.14c.67,1,1.33,1.94,2.09,2.83.28.33.84.43,1.4.69.58-.91,1.14-1.73,1.64-2.59,1.68-2.9,3.34-5.81,5-8.72q16.21-28.36,32.43-56.72c.66-1.16,1.41-2.27,2.18-3.35C834.05,1104.1,834.51,1104.15,835,1104.06ZM920.59,993.8a31.57,31.57,0,0,0-2.43-5.11l-62.08-119-20.24-38.78c-.62-1.19-1.27-2.36-1.92-3.52a1,1,0,0,0-1.68-.24c-1.18,1.42-2.36,2.83-3.5,4.28q-14.14,18-28.27,36L720.64,969c-3,3.77-3,3.19-.75,7.48q14.72,28.61,29.49,57.2,7.83,15.19,15.66,30.39c.68,1.32,1.14,2.82,2.47,3.81a5.21,5.21,0,0,0,1.12-.94c.75-1.11,1.42-2.27,2.1-3.43l59.2-99.94q11.79-19.9,23.61-39.79c.76-1.27,1.26-2.75,2.66-3.65a5.36,5.36,0,0,1,1,1.13c.48,1.07.85,2.18,1.26,3.28q17.21,46.42,34.43,92.84c.7,1.88,1.46,3.73,2.14,5.45,1.2.43,1.76-.21,2.3-.85q11-13.1,22-26.21A20.47,20.47,0,0,0,920.59,993.8Zm-320.23,75.14a4.54,4.54,0,0,0-1.21.8c-.82,1.06-1.55,2.18-2.3,3.29l-83.61,123.71c-.66,1-1.3,2-1.93,2.94a2.34,2.34,0,0,0-.08,2.38c.36.75.71,1.52,1.09,2.26q18.37,36.61,36.75,73.22c.45.9,1,1.75,1.48,2.62a.81.81,0,0,0,1.26.1c1-1.37,1.93-2.73,2.82-4.14q13-20.66,25.88-41.33c.8-1.28,1.66-2.51,2.5-3.76a1,1,0,0,1,1.33-.13c.83,1,1.68,2.08,2.45,3.17q10,14.2,19.91,28.41,8.07,11.53,16.15,23.06a18.74,18.74,0,0,0,1.93,2.28.93.93,0,0,0,.92,0,24.63,24.63,0,0,0,2.39-2.55q19.53-24.94,39-49.9a22.53,22.53,0,0,0,1.48-2,2,2,0,0,0,.25-1.9c-.58-1.39-1.09-2.81-1.67-4.2l-42.34-101q-11-26.19-22-52.37C602.15,1072.2,601.73,1070.37,600.36,1068.94Zm421.59,53.31c.58-.24,1.18-.29,1.41-.61.88-1.22,1.65-2.52,2.44-3.81q18.12-29.58,36.23-59.18c4-6.64,3.86-4.47.48-11.22q-21.58-43.17-43.3-86.26-9.47-18.87-18.94-37.75c-.6-1.2-1.24-2.38-1.88-3.56a1.08,1.08,0,0,0-1.69-.33c-1,1.11-2,2.22-3,3.37q-7.44,8.85-14.86,17.73L902.26,1032c-3.26,3.89-2.91,3-1.22,7.55q10.6,28.77,21.33,57.49,4.64,12.48,9.31,25a12.85,12.85,0,0,0,1.11,2.22.89.89,0,0,0,.85.16,18.13,18.13,0,0,0,2.06-2.16q10.34-13.3,20.65-26.62,15.41-19.87,30.84-39.73c.81-1,1.42-2.3,2.78-2.91a5.79,5.79,0,0,1,1,1.09c.54,1,1,2.13,1.47,3.2q13.57,30,27.15,60C1020.29,1118.86,1021.11,1120.5,1021.95,1122.25ZM196.81,1354.32c.55-.29,1.13-.4,1.37-.74.86-1.24,1.62-2.54,2.38-3.84l55.51-93.9,23.28-39.38c.6-1,1.21-2,1.87-3a1.16,1.16,0,0,1,.84-.42,1,1,0,0,1,.74.46c.75,1.68,1.47,3.38,2.16,5.09q15.65,38.66,31.31,77.32c.55,1.35.7,3,2.13,3.87,1.87-.47,2.27-2.27,3.12-3.6q19.44-30.53,38.81-61.11c.54-.85,1-1.72,1.6-2.55a3.19,3.19,0,0,0,.23-3.33q-3.35-7.31-6.67-14.63L308,1110.28c-.62-1.37-1.27-2.73-1.93-4.09-.45-.92-1.44-1.09-1.95-.32-.93,1.39-1.84,2.8-2.73,4.22l-81.52,131-38.5,61.9c-.8,1.28-1.58,2.57-2.28,3.9a2.35,2.35,0,0,0-.18,1.45,14.54,14.54,0,0,0,.76,2.39q7.89,20.39,15.8,40.76C195.86,1352.45,196.35,1353.33,196.81,1354.32Zm440-754.57c.23-.83.45-1.44.56-2.06q1.42-8.17,2.8-16.35,2.32-13.88,4.6-27.77,2.22-13.39,4.45-26.78c1.5-9.09,3-18.19,4.49-27.28s3.06-18.18,4.56-27.27,3-18.19,4.48-27.28q2.34-14.13,4.7-28.26,1-5.7,2-11.39a2,2,0,0,1,.48-.74c.19-.25.85.26,1.1.87.44,1.09.86,2.18,1.28,3.27l23.24,60q15.8,40.78,31.61,81.55c.6,1.55,1.28,3.07,2,4.73.56-.38,1.09-.56,1.33-.93a15.51,15.51,0,0,0,1.08-2.27q10.35-24,20.69-48c.46-1.07.87-2.17,1.26-3.15a15.79,15.79,0,0,0-2-4.72q-39-75.2-78.07-150.38c-.62-1.19-1.28-2.35-1.94-3.52a.84.84,0,0,0-1.55,0c-.85,1.82-1.7,3.63-2.49,5.48Q633.2,428.27,599,509q-17.45,41.2-34.89,82.4a26.31,26.31,0,0,0-2.11,5.64c.15.48.27,1,.46,1.43q4.73,11.64,9.49,23.27a5.62,5.62,0,0,0,.74,1.31,1.45,1.45,0,0,0,.77.39c.1,0,.33-.15.39-.28.69-1.52,1.41-3,2-4.58q15.5-40.35,31-80.72c.48-1.24,1-2.48,1.45-3.69.48.1.95.07,1,.24.61,1.18,1.2,2.38,1.7,3.61q11.53,28.41,23,56.83c.5,1.24,1,2.49,1.58,3.69C635.84,599,636.31,599.25,636.85,599.76Zm388.46,227.71c-.64-1.9-1.24-3.81-1.93-5.69Q986.27,720.84,949.14,619.9,926,556.93,902.83,494c-.44-1.2-.61-2.59-1.76-3.44-1.78.45-1.89,2.18-2.5,3.45q-11.75,24.47-23.4,49c-2.64,5.54-2.54,4-.32,9.87q33.46,88.09,67,176.17a39.28,39.28,0,0,0,4.63,8.86q33.95,48,67.81,96.16c.77,1.1,1.57,2.18,2.37,3.25a1.18,1.18,0,0,0,1.75.15A90.29,90.29,0,0,0,1025.31,827.46ZM675.88,582.37a5.47,5.47,0,0,1,.84,1c.59,1.2,1.12,2.43,1.65,3.66q23.89,54.84,47.79,109.68c2.78,6.37,1.54,5.43,8.38,5.46A142.42,142.42,0,0,1,762,705c4.44.89,8.81,2.06,13.18,3.2a2.15,2.15,0,0,0,1.4-.22c.52-.27.38-.87.22-1.32-.62-1.74-1.26-3.46-1.93-5.18L685.16,470q-4.72-12.19-9.48-24.36a12,12,0,0,0-1.18-2.17c-.09-.13-.55,0-1,0-.38,2.07-.8,4.2-1.16,6.34-1.15,6.94-2.28,13.89-3.43,20.83q-2.34,14.13-4.7,28.26-2.28,13.63-4.57,27.27-2.23,13.39-4.42,26.78c-1.14,6.94-2.27,13.89-3.42,20.83q-2.27,13.64-4.57,27.27-2.36,14.13-4.69,28.26-1.14,6.94-2.2,13.9c0,.17.31.43.52.59s.36-.05.43-.16c.65-1,1.33-1.93,1.89-2.95q8.51-15.4,17-30.83,6.91-12.55,13.82-25.11C674.44,583.89,674.71,582.83,675.88,582.37ZM994,906.29c.56-.55,1.18-1.09,1.73-1.7,1-1.12,2-2.28,3-3.4a1,1,0,0,1,1.67.08c.72,1.32,1.44,2.64,2.12,4l54.33,108.23q6.43,12.8,12.89,25.58a19.87,19.87,0,0,0,1.57,2.54c.09.13.71.1.87-.07a12.23,12.23,0,0,0,1.53-2q19.44-31.71,38.84-63.44c.52-.85,1-1.75,1.37-2.5a20.45,20.45,0,0,0-2.09-5.28q-23.25-50.14-46.54-100.27-9.84-21.19-19.67-42.39c-.69-1.48-1.12-3.15-2.43-4.29a4.38,4.38,0,0,0-.5.17,1.05,1.05,0,0,0-.41.27q-25.89,36.17-51.75,72.35c-.67.94-1.25,2-1.81,2.85a42,42,0,0,0,4.37,8.6C993.24,905.9,993.6,906,994,906.29ZM378,1007.61a3.33,3.33,0,0,0-.48.17,1,1,0,0,0-.4.3q-28,43.83-56.07,87.68a67.94,67.94,0,0,0-4.76,7.85c.71,1.66,1.39,3.37,2.15,5q24,52.84,48.11,105.68.94,2.06,1.93,4.09a1.76,1.76,0,0,0,.61.77c.25.14.78.19.91,0a24.52,24.52,0,0,0,2.12-2.77c6.21-9.76,12.36-19.55,18.61-29.28a33.5,33.5,0,0,0,3.63-7.69q11.66-35.31,23.37-70.61c1.89-5.72,1.95-4.47-.41-10q-12.09-28.45-24.2-56.89-6.69-15.73-13.4-31.44C379.3,1009.47,379.06,1008.29,378,1007.61ZM717.07,221.19a6.66,6.66,0,0,0-1.21,3.38c-1.44,7.57-2.84,15.15-4.24,22.73q-3.22,17.29-6.44,34.59c-2.19,11.69-4.43,23.37-6.62,35.07S694.24,340.34,692,352c-1.23,6.38-.92,5.4,1.46,10q18.38,35.49,36.82,71,12.74,24.54,25.49,49.08c.77,1.48,1.63,2.91,2.47,4.36a.9.9,0,0,0,1.3,0c.47-.88,1-1.75,1.38-2.66q4.41-10.14,8.78-20.3,7.67-17.77,15.33-35.54c1.26-2.95,1.77-3,.34-6.69-.3-.78-.54-1.59-.81-2.38q-8.77-26-17.54-51.9Q743.19,296.48,719.36,226c-.43-1.27-.88-2.53-1.4-3.77A4.76,4.76,0,0,0,717.07,221.19ZM339.9,1383.27a5.37,5.37,0,0,0,0-1.57c-.55-1.58-1.16-3.14-1.79-4.69q-14-34.7-28.07-69.4-13.48-33.3-27-66.59c-.38-.93-.69-1.89-1.13-2.79s-.47-2.14-1.63-2.2c-.87,0-1.22,1-1.65,1.73q-.91,1.51-1.8,3-31.85,53.86-63.68,107.73c-5.79,9.81-11.5,19.67-17.22,29.52-.76,1.3-1.42,2.66-2.1,4a1,1,0,0,0,.81,1.45c1.84.06,3.68.12,5.52.12H333.39c1.51,0,3,0,4.52,0A16.49,16.49,0,0,0,339.9,1383.27Zm708.26,1.78c1.29-.65,1.88-1.9,2.59-3,4.89-7.61,9.74-15.24,14.63-22.85q19.44-30.21,38.91-60.4c.82-1.27,1.63-2.53,2.43-3.81a2.94,2.94,0,0,0,.13-2.88l-.79-1.85q-15.58-35.67-31.18-71.34c-.4-.92-.88-1.79-1.34-2.68a.84.84,0,0,0-1.29-.09c-.91,1.4-1.85,2.78-2.7,4.21q-20,34-40,68-11.22,19-22.42,38.1a17.75,17.75,0,0,0-2.46,4.82c.54,1.37,1,2.62,1.52,3.86l11,27q4.07,10,8.14,20a5.66,5.66,0,0,0,1.85,2.92C1031,1385.34,1043.52,1385.37,1048.15,1385.06ZM546.86,589.26a12.93,12.93,0,0,0-1,1.67c-.46,1.08-.82,2.2-1.21,3.3q-39.18,108.45-78.35,216.89c-.63,1.73-1.18,3.49-1.74,5.24a.62.62,0,0,0,.11.43c.26,0,.66,0,.77-.15.86-1.23,1.7-2.48,2.48-3.76q17.78-29.49,35.54-59,16.86-28,33.72-56c.86-1.43,1.82-2.8,2.74-4.2a.83.83,0,0,1,1.28.09c.63,1.18,1.28,2.35,1.85,3.56q6.33,13.4,12.63,26.82,8.46,18,16.93,35.91c.5,1.05,1.1,2.06,1.66,3.08a1,1,0,0,0,1.31,0c.53-.85,1.1-1.68,1.58-2.55q10.68-19.36,21.34-38.74c.4-.73.81-1.47,1.19-2.21a3.37,3.37,0,0,0,.18-2.91c-.49-1.24-1-2.48-1.51-3.72l-42.1-102.75q-3.81-9.3-7.63-18.59C548.25,590.79,548,589.78,546.86,589.26ZM611.34,765.5c.57-.29,1.12-.39,1.39-.72,1-1.16,1.8-2.42,2.72-3.61,23.87-31.17,55-50.39,93.79-57,2.14-.37,4.3-.65,6.45-1,1.19-.18,1.63-1,1.15-2.2s-1-2.48-1.55-3.71q-4.31-9.9-8.63-19.8l-29.1-66.77q-.9-2.07-1.87-4.11c-.44-.93-1.39-1.06-1.87-.25-.86,1.44-1.7,2.88-2.5,4.35l-68.79,125q-9.69,17.61-19.39,35.21c-.81,1.47-1.6,2.94-2.32,4.45a2.7,2.7,0,0,0-.08,1.45,1.08,1.08,0,0,0,.54.74,1.05,1.05,0,0,0,.93-.11,21.53,21.53,0,0,0,2.06-2.17q8.43-10.31,16.84-20.64c.73-.9,1.55-1.73,2.28-2.54a2.66,2.66,0,0,1,1.55,1.41q2.41,4.69,4.86,9.36C610.26,763.72,610.79,764.56,611.34,765.5Zm263.13,434.76c-.58-1.16-1.21-2.52-1.91-3.85q-18-34-36-67.9a28.65,28.65,0,0,0-1.47-2.63,4.68,4.68,0,0,0-1.22-.89,19.19,19.19,0,0,0-2.74,4.26q-12.36,21.58-24.71,43.16-13.84,24.2-27.67,48.41-1,1.74-1.95,3.51a2.23,2.23,0,0,0,.15,2.37c.36.57.72,1.13,1.09,1.69q16.55,24.6,33.1,49.19c.46.68,1,1.32,1.45,1.9a6.12,6.12,0,0,0,.66-.09.87.87,0,0,0,.45-.19q29.33-37.65,58.64-75.33C873.15,1202.84,874.17,1201.91,874.47,1200.26Zm67.83,126.39c-.63-1.33-1.09-2.4-1.62-3.44q-16.92-33.36-33.86-66.72c-2.25-4.42-2.28-4.43-5-.12q-24.34,38.09-48.68,76.19c-2.7,4.22-2.52,3.65,0,7.46q14,20.85,28,41.68.7,1,1.42,2.07a3,3,0,0,0,2.49,1.45h17.58a2.91,2.91,0,0,0,2.53-1.37c.65-1,1.32-1.94,2-2.92q16.29-25.06,32.57-50.12C940.55,1329.55,941.31,1328.26,942.3,1326.65Zm44.18-411.22c-.59-1.2-1-2.11-1.48-3-1.51-2.8-3-5.59-4.56-8.39q-14.25-26.29-28.5-52.58c-.72-1.32-1.53-2.59-2.31-3.87a1,1,0,0,0-1.33-.14c-.92,1.18-1.89,2.34-2.76,3.56q-23.73,33.4-47.45,66.81-1.16,1.64-2.28,3.31a2.4,2.4,0,0,0-.1,2.4c.26.61.59,1.2.9,1.79q14.75,28.3,29.5,56.6c.38.74.86,1.43,1.3,2.13a1,1,0,0,0,1.32.21c.69-.72,1.41-1.43,2.05-2.19q26.82-32,53.61-64C985.05,917.35,985.63,916.54,986.48,915.43Zm311.24,469.48a12.3,12.3,0,0,0,4.44.35q29.89,0,59.78,0,1.51,0,3-.07a1.81,1.81,0,0,0,1-.24c.23-.17.51-.63.43-.82-.64-1.54-1.28-3.08-2.05-4.55q-16-30.19-31.94-60.36-11.51-21.74-23-43.48c-.55-1-1.19-2-1.8-3a.86.86,0,0,0-1.29,0c-.43.51-.88,1-1.27,1.55q-15.51,21-31,42c-.59.8-1.07,1.67-1.65,2.58.45,1.3.86,2.57,1.33,3.82q4.25,11.27,8.53,22.54,6.66,17.61,13.35,35.2C1296.07,1382,1296.36,1383.71,1297.72,1384.91Zm-744.85-4.29c.29-.13.66-.19.85-.4.78-.87,1.52-1.78,2.25-2.71l60.09-76.86c.62-.79,1.23-1.59,1.78-2.43a1.69,1.69,0,0,0,0-1.89c-.44-.71-.9-1.41-1.38-2.1q-15-21.43-30-42.85c-.48-.68-1-1.33-1.53-2a.87.87,0,0,0-1.29-.07c-.69.94-1.4,1.87-2,2.86q-26.43,42.18-52.83,84.38c-.53.85-1.05,1.71-1.53,2.6a1.91,1.91,0,0,0,0,1.92c.76,1.3,1.58,2.57,2.38,3.84,7.33,11.62,15.29,22.84,22.07,34.82a2.85,2.85,0,0,0,.68.71A1.36,1.36,0,0,0,552.88,1380.61ZM801.36,718.91a3,3,0,0,0,2-1.7q3.74-6.54,7.49-13.07c7.9-13.81,15.76-27.63,23.73-41.4a5.23,5.23,0,0,0,.25-5.64c-.4-.73-.66-1.54-1-2.31l-16.34-38.34q-6.79-15.94-13.59-31.87c-.31-.73-.5-1.81-1.37-1.92-1.24-.15-1.45,1.16-2,2a14.63,14.63,0,0,0-.7,1.33Q783.91,616.16,768,646.38c-.7,1.33-1.31,2.7-1.94,4,.44,1.25.8,2.36,1.22,3.45q10.88,28.09,21.78,56.18a23.49,23.49,0,0,0,1.15,2.78,3.46,3.46,0,0,0,1.33,1.43C794.85,715.85,798.19,717.4,801.36,718.91ZM965.8,1385.26h39.74c2,0,4,0,6,0,.67,0,1.33-.09,2-.15a1.29,1.29,0,0,0,1.08-1.41,23.36,23.36,0,0,0-.74-2.38c-2.07-5.13-4.16-10.24-6.24-15.37l-27.45-67.52c-.44-1.09-.84-2.2-1.37-3.24-.42-.83-.42-2.16-1.72-2.18-.93,0-1.27,1-1.74,1.62-.58.82-1.1,1.68-1.65,2.53L920,1379.78c-.73,1.12-1.45,2.26-2.14,3.4a1.7,1.7,0,0,0-.26.95c0,.29.24.78.42.8a33.3,33.3,0,0,0,4,.31Q943.92,1385.28,965.8,1385.26ZM606.34,705.38c.5-.11,1-.07,1.1-.26a20.84,20.84,0,0,0,1.63-2.49q6.07-11,12.11-22c3.81-6.93,3.76-6.93,5-14.55,1.15-7.27,2.4-14.53,3.61-21.8q1.65-9.91,3.3-19.81a14.57,14.57,0,0,0,.26-2.5,10.29,10.29,0,0,0-.32-2.46,19.34,19.34,0,0,0-.9-2.34Q621.55,591.1,611,565c-.37-.92-.86-1.8-1.32-2.69-.06-.11-.28-.25-.38-.21-.3.1-.72.19-.84.43a23.93,23.93,0,0,0-1.24,2.72q-13.38,34.93-26.74,69.87c-1.53,4-1.64,3.34.11,7.6q12.19,29.73,24.36,59.48C605.38,703.31,605.88,704.35,606.34,705.38Zm142.4,211.08c-.83-1.68-1.48-3-2.17-4.37q-3.36-6.47-6.74-12.93-12.45-23.85-24.9-47.7c-.7-1.33-1.49-2.61-2.25-3.9a.92.92,0,0,0-1.3,0c-.54.64-1.11,1.26-1.6,1.93q-15.2,21-30.38,42c-.58.81-1.09,1.68-1.55,2.39a8.62,8.62,0,0,0,1.45,3.89q13,25.26,26,50.51c.46.89.95,1.77,1.44,2.65a1.92,1.92,0,0,0,1.63,1q5.53.22,11.06.35a2.82,2.82,0,0,0,2.2-1c.33-.38.65-.77,1-1.17q12.27-15.63,24.53-31.27C747.66,918.13,748.09,917.42,748.75,916.45ZM490,1383.77v-.12q23.11,0,46.22,0c1.62,0,3.32.37,4.86-.51.37-2.07-1.24-3.34-2-4.92a31.75,31.75,0,0,0-1.88-3l-31.69-48.89c-2.64-4.07-5.27-8.16-7.93-12.22a12.35,12.35,0,0,0-1.58-1.92.91.91,0,0,0-.9,0,19.33,19.33,0,0,0-2.05,2.17q-26,32.88-52.06,65.79c-.62.78-1.15,1.63-1.71,2.46-.2.29.2,1.2.54,1.22,1.16.08,2.33.2,3.5.19Q466.64,1383.92,490,1383.77Zm-299.61-16.94c-.5-1.41-1-2.83-1.51-4.22q-10.06-26-20.14-51.94-.64-1.64-1.31-3.26c-.13-.31-.31-.59-.46-.88a.92.92,0,0,0-1.3-.14c-.8,1.07-1.63,2.12-2.35,3.23q-21.8,33.74-43.57,67.5c-.63,1-1.19,2-1.77,3-.23.41.08,1.17.49,1.22a18.58,18.58,0,0,0,2,.22l55.74,1c1.34,0,2.68,0,4,0a2.35,2.35,0,0,0,2.09-1.17C185,1376.6,187.84,1371.85,190.39,1366.83Zm263.24-278c.89.3,1.22,1.09,1.59,1.83q4,7.85,7.9,15.7,8.56,17.05,17.13,34.11a27.74,27.74,0,0,0,1.8,3,.88.88,0,0,0,.85.16,11.59,11.59,0,0,0,1.77-1.74q4.83-6.11,9.6-12.26c1.81-2.33,1.8-2.46.36-4.85q-.78-1.29-1.58-2.57l-41.58-66.42c-.71-1.13-1.43-2.26-2.18-3.37a1.67,1.67,0,0,0-.72-.65c-.26-.09-.81,0-.88.1A44.32,44.32,0,0,0,446,1056q-12.51,37.64-25,75.28-1.9,5.72-3.71,11.46a5.13,5.13,0,0,0,0,1.43c1.36-.53,1.77-1.72,2.38-2.68q7.18-11.21,14.28-22.47,8.74-13.79,17.49-27.57C452,1090.52,452.48,1089.37,453.63,1088.85Z"/><path d="M467.49,1713a9.31,9.31,0,0,1,1.72,3.57,227.6,227.6,0,0,0,15,32.89,193.13,193.13,0,0,0,32.94,43.6,155.6,155.6,0,0,0,37.57,27.57,133.3,133.3,0,0,0,43.33,13.94,128.66,128.66,0,0,0,32.1.45,132,132,0,0,0,48.57-15.44,154.63,154.63,0,0,0,24.94-16.91q1.94-1.6,3.89-3.19a1.09,1.09,0,0,1,1.34.16c.35.57.72,1.13,1,1.72a135.26,135.26,0,0,0,13.44,21.8,8.61,8.61,0,0,1,1.86,4.58c.14,1.5.26,3,.33,4.51a193.26,193.26,0,0,1,0,19.61,163.19,163.19,0,0,1-7.54,40.42,173.29,173.29,0,0,1-36.43,63.12c-19.43,21.72-42.74,38.05-69.43,49.61a217.88,217.88,0,0,1-98.68,17.11c-41.49-2.57-79.4-15.53-113-40.2a184.32,184.32,0,0,1-48.54-52.48,168.13,168.13,0,0,1-22.27-57.85,166.11,166.11,0,0,1-2.45-35.56,163.25,163.25,0,0,1,11.52-54.83c.24-.62.54-1.23.78-1.85a3,3,0,0,1,1.71-1.74c.93-.37,1.88-.7,2.83-1a87.77,87.77,0,0,0,32-20.4c.71-.71,1.42-1.42,2.18-2.08a2,2,0,0,1,1.89-.39c1.13.31,2.23.7,3.35,1a67.29,67.29,0,0,0,20.79,3.12,66.88,66.88,0,0,0,61-40.44c.46-1.08.84-2.19,1.34-3.25A6.13,6.13,0,0,1,467.49,1713Z"/><path d="M913.39,2002.58c5.93-.76,11.6-1.29,17.14-2.68a93.43,93.43,0,0,0,16.13-5.59,92.25,92.25,0,0,0,14.4-8.21,95.75,95.75,0,0,0,13.08-11,108.93,108.93,0,0,0,11-13.06,8.24,8.24,0,0,1,1.59.74c1.68,1.39,3.3,2.85,5,4.23a104.05,104.05,0,0,0,40.39,20.72,98.76,98.76,0,0,0,56.93-2.63c.79-.28,1.57-.61,2.37-.81a1.82,1.82,0,0,1,1.86.44c1.24,1.36,2.49,2.72,3.66,4.14a168.55,168.55,0,0,1,26.14,44.49,177.91,177.91,0,0,1,12.56,70.31,173.6,173.6,0,0,1-1.46,20.56c-5.89,41.31-23.19,76.75-54.33,104.93a140.15,140.15,0,0,1-55.23,31,130.42,130.42,0,0,1-25.63,4.88c-4,.34-8,.69-12,.68a136.76,136.76,0,0,1-59.34-13.37c-22.07-10.52-40.28-25.8-55.13-45.15a171.06,171.06,0,0,1-30.86-66,188.13,188.13,0,0,1-4.64-38.37c-.17-6.88.4-13.74.82-20.6a3.32,3.32,0,0,1,2.16-3.09c1.23-.52,2.47-1,3.68-1.63,31.41-15,54.12-38.41,67.91-70.42C912.07,2005.72,912.65,2004.33,913.39,2002.58Z"/><path d="M634.61,2047.25c1.44,0,2.5.89,3.68,1.47a65.76,65.76,0,0,0,14.14,5.13,61.89,61.89,0,0,0,33.72-1.53c.64-.2,1.26-.46,1.89-.68s1.27-.4,1.87-.59c1.35.11,2.06,1.13,2.9,1.92a135.89,135.89,0,0,0,17.68,14.09c1,.65,2,1.25,3,1.81a.85.85,0,0,0,.81-.14,1.08,1.08,0,0,0,.17-.92c-2.07-4.95-4.18-9.87-6.27-14.81a9.05,9.05,0,0,0-2.53-3.07c-3-2.7-6-5.35-8.83-8.22A122.09,122.09,0,0,1,666,1988.31a9.64,9.64,0,0,1-.39-1.45,1.93,1.93,0,0,1,.61-1.82c.38-.32.74-.68,1.13-1q7.19-5.92,13.83-12.45c.36-.35.74-.68,1.12-1a1.11,1.11,0,0,1,1.71.24c.51,1.05,1,2.11,1.48,3.18q4.56,10.63,9.1,21.26L750.93,2127c2.11,4.94,2.61,5.77,3.15,5.41,1.8-1.17,2.21-3.26,3.1-5Q813,2019,868.7,1910.55c.92-1.79,1.87-3.56,2.83-5.33a1.36,1.36,0,0,1,2.09-.56c.58.33,1.15.69,1.71,1a116.47,116.47,0,0,0,27.26,12.71c.8.25,1.59.53,2.25.75a4.2,4.2,0,0,1,1.53,2.67,133,133,0,0,1,3.5,16.71,121.28,121.28,0,0,1,1.07,18.06,119.34,119.34,0,0,1-21.58,68.48c-18.67,26.95-44.22,43.94-76.14,51.31a94.24,94.24,0,0,1-16.4,2.41c-.67,0-1.34.11-2,.21a2.14,2.14,0,0,0-1.65,1c-1.47,2.82-2.89,5.66-4.31,8.51-.29.58.31,1.36,1,1.34,2.68-.07,5.37,0,8-.27a139.88,139.88,0,0,0,24.22-4.31,23.84,23.84,0,0,1,3.44-.62.89.89,0,0,1,.7.52,15.14,15.14,0,0,1,.16,2.47c-.06,5.7-.34,11.4-.2,17.1.87,35.7,10.68,68.7,30.26,98.66a165.71,165.71,0,0,0,47,47.67c1,.65,1.88,1.38,2.81,2.08a.81.81,0,0,1-.23,1.26c-1.08.45-2.15.92-3.26,1.31a170.22,170.22,0,0,1-34.13,8.26,168.86,168.86,0,0,1-87.33-10.72,197,197,0,0,1-53.27-31.91,243.51,243.51,0,0,1-46.78-52.31,295.84,295.84,0,0,1-34-69.3,338.93,338.93,0,0,1-12.82-50.11,10.53,10.53,0,0,1,0-2A1.35,1.35,0,0,1,634.61,2047.25Z"/><path d="M661.47,1584.64a99.65,99.65,0,0,0-.81-14.55,42,42,0,0,1-.26-4.5.94.94,0,0,1,1.08-.75c1.11.37,2.23.72,3.32,1.14a147.59,147.59,0,0,0,28.14,7.43,160.27,160.27,0,0,0,25.55,1.92c1.17,0,2.34,0,3.51.09a1.17,1.17,0,0,1,.82,1.09c-.24,1.14-.46,2.29-.74,3.42a73.4,73.4,0,0,0-2.35,18.4,70.32,70.32,0,0,0,37.52,61.82c1.63.86,3.32,1.59,5,2.4s1.94,1.31,1.65,3.2c-.65,4.31-1.29,8.62-2.15,12.89a227.63,227.63,0,0,1-18.88,56.06A192,192,0,0,1,716.45,1775a153.29,153.29,0,0,1-38.57,32.72,124.69,124.69,0,0,1-38.24,14.91,115,115,0,0,1-32,2.22,123.64,123.64,0,0,1-55.43-18A150.88,150.88,0,0,1,520,1780.48a190.81,190.81,0,0,1-34-51.38,225.35,225.35,0,0,1-17-54.58c-.58-3.3-1.1-6.61-1.63-9.92a1.6,1.6,0,0,1,.87-1.66c1.58-.53,3.17-1,4.77-1.5a1.13,1.13,0,0,1,.94.23c.83.83,1.61,1.7,2.36,2.6A110.64,110.64,0,0,0,491,1678.76a101.52,101.52,0,0,0,44.44,21.32,92.54,92.54,0,0,0,22.51,1.8c30.82-1.28,55.66-14.61,75.43-37.84,12.51-14.7,20.56-31.71,24.89-50.48A118.51,118.51,0,0,0,661.47,1584.64Z"/><path d="M1296.76,1511.7c.45,1.41.94,2.83,1.34,4.27a264.83,264.83,0,0,1,7.29,35.42,252.29,252.29,0,0,1,1.69,50.19c-2.28,36.14-11.63,70.32-29.3,102.07a195.83,195.83,0,0,1-34.58,45.48,160,160,0,0,1-49.35,33.24,140.14,140.14,0,0,1-35.25,9.78,136,136,0,0,1-34.1.53,139.64,139.64,0,0,1-46.09-13.46,162.73,162.73,0,0,1-42.46-30.15c-17.48-17.05-31-36.88-41.44-58.92-1.72-3.63-3.25-7.36-4.85-11a1.78,1.78,0,0,1,.57-2.24c.67-.5,1.36-1,2.06-1.44,17.34-11.71,31.43-26.59,42.93-44a188,188,0,0,0,22.53-48.1c.4-1.28.77-2.57,1.23-3.83a2,2,0,0,1,1.51-1.19,8.81,8.81,0,0,1,1.48-.29,73.42,73.42,0,0,0,12.36-2.17c.32-.08.66-.09,1-.15a1.34,1.34,0,0,1,1.49,1c.3,2.16.61,4.32.87,6.48a135.16,135.16,0,0,0,17.07,52.19,109.61,109.61,0,0,0,25,30,86,86,0,0,0,31.14,17q31.37,9.08,60.51-5.85a97,97,0,0,0,31.48-26.17,125.45,125.45,0,0,0,22.29-43,147.35,147.35,0,0,0,5.29-26.58,149.93,149.93,0,0,0,.49-26.12,143.33,143.33,0,0,0-5.13-29.67,25.41,25.41,0,0,1-.72-2.92,3,3,0,0,1,.25-1.46,6.16,6.16,0,0,1,.79-1.28c3.52-4.91,6.73-10,9.75-15.24a4.76,4.76,0,0,1,.91-1.18,1.25,1.25,0,0,1,.91-.23,2.38,2.38,0,0,1,.89.45,59.6,59.6,0,0,0,16.27,7.76A13.92,13.92,0,0,1,1296.76,1511.7Z"/><path d="M1050.55,1775.56c0,1.47.07,2.81,0,4.14-1.71,27-8.85,52.45-23,75.7a129.39,129.39,0,0,1-28.81,33.32A104.55,104.55,0,0,1,959.77,1909a93.7,93.7,0,0,1-30.35,3.34,100,100,0,0,1-47.79-15.48,121.43,121.43,0,0,1-30.13-27.14A143.46,143.46,0,0,1,834.63,1843a17.93,17.93,0,0,1-1-2.31,1.17,1.17,0,0,1,.2-.94,16.76,16.76,0,0,1,1.71-1.82,117.46,117.46,0,0,0,21.3-26.6,162.27,162.27,0,0,0,16.76-39.71A202.6,202.6,0,0,0,880,1737.6a247.31,247.31,0,0,0,.6-36.67c-.15-3.18-.55-6.34-.81-9.51a2.09,2.09,0,0,1,.28-.93.46.46,0,0,1,.36-.23,14.35,14.35,0,0,1,2.45.47,112.28,112.28,0,0,0,15.51,4.19,121.57,121.57,0,0,0,34.51,1.91,124.8,124.8,0,0,0,43.31-12.13c.75-.37,1.52-.69,2.29-1a1.12,1.12,0,0,1,1.32.4c.79,1.66,1.59,3.32,2.33,5a223,223,0,0,0,24.8,43,192.08,192.08,0,0,0,41,41.23c.54.4,1.08.79,1.6,1.21C1049.76,1774.77,1050,1775,1050.55,1775.56Z"/><path d="M922.35,1686.46c-21.89.08-42-6.14-60.45-17.65a139.31,139.31,0,0,1-37.74-35,173.55,173.55,0,0,1-26.9-53.1,203.3,203.3,0,0,1-5.72-23.42,2.26,2.26,0,0,1,1.12-2.55l1.72-1a162.92,162.92,0,0,0,23.19-16.78c.63-.55,1.31-1,2-1.54a1,1,0,0,1,1.33.27c.77,1.49,1.5,3,2.28,4.46,8.13,15.34,20.29,26.08,36.68,31.83A65.57,65.57,0,0,0,945.39,1525a64.59,64.59,0,0,0,0-29.88c-.31-1.3-.58-2.62-.85-3.93a.5.5,0,0,1,.21-.42,1.46,1.46,0,0,1,.86-.26,6.91,6.91,0,0,1,1.37.62,44.16,44.16,0,0,0,20.35,4.8,9.91,9.91,0,0,1,2,.18,1.15,1.15,0,0,1,.7.63,5.34,5.34,0,0,1,.28,1.46c.21,2.34.36,4.68.61,7a79.28,79.28,0,0,0,21.6,47.11,80.86,80.86,0,0,0,44.57,24.62c2.3.45,4.64.68,6.95,1.06a20.42,20.42,0,0,1,2.9.72,1,1,0,0,1,.45.8,4.87,4.87,0,0,1-.26,1.47c-6.86,21.83-17.23,41.78-32,59.35a135.25,135.25,0,0,1-38.88,32.22,116.6,116.6,0,0,1-35.4,12.46A96.65,96.65,0,0,1,922.35,1686.46Z"/><path d="M784.08,2298.33c-.28,25.73-7.55,49.18-23,69.9a102.64,102.64,0,0,1-45.19,34.85,94.42,94.42,0,0,1-42.87,6.42A96.88,96.88,0,0,1,623.24,2391c-17.73-12.84-30.28-29.7-38.21-50a120.29,120.29,0,0,1-7-57.78,114.78,114.78,0,0,1,6-25.37c.11-.31.28-.61.42-.91a1.39,1.39,0,0,1,1.65-.76q2.32,1,4.62,2a141.11,141.11,0,0,0,33.73,9.62,148.05,148.05,0,0,0,29.07,1.5,143.49,143.49,0,0,0,76.49-26c1.23-.87,2.45-1.76,3.74-2.54a1.79,1.79,0,0,1,1.41-.05,12.09,12.09,0,0,1,2.16,1.26,203.85,203.85,0,0,0,38.84,21c.62.25,1.23.54,1.84.81a2.92,2.92,0,0,1,1.56,1.86c.17.47.28,1,.42,1.45A119.34,119.34,0,0,1,784.08,2298.33Z"/><path d="M641.11,2517.5c-31.43-.36-58.61-11.37-81.34-33-19-18.1-30.94-40.23-36.4-65.89a125.52,125.52,0,0,1-2.7-33c1.65-30.53,12.31-57.44,32.68-80.38.33-.38.71-.72,1-1.12a6.9,6.9,0,0,1,6-3,29.52,29.52,0,0,0,4.48-.56,1.59,1.59,0,0,1,1.44,1.17c.08,1,.18,2,.22,3a124.56,124.56,0,0,0,9.17,42A120,120,0,0,0,616,2399.11a107.62,107.62,0,0,0,44.26,19.51,105.52,105.52,0,0,0,27.53,1.67c26.88-1.93,49.73-12.68,69.21-31,.85-.81,1.67-1.65,2.55-2.43a1.11,1.11,0,0,1,.88-.23,1.2,1.2,0,0,1,.62.64,2.55,2.55,0,0,1,.18,1c1.38,43.45-19.47,85.84-56.44,110.13a117.09,117.09,0,0,1-46.08,17.83A104.38,104.38,0,0,1,641.11,2517.5Z"/><path d="M779.56,2360.16a3.69,3.69,0,0,1,2.2,1c2.68,1.72,5.28,3.58,8.07,5.08a66.62,66.62,0,0,0,96.66-45.69,65.07,65.07,0,0,0-5.46-42.12c-.65-1.36-1.31-2.71-1.9-4.1-.08-.19.17-.68.4-.81a4.6,4.6,0,0,1,1.41-.48,193.88,193.88,0,0,0,36.44-11.23c.46-.19.91-.42,1.39-.59a3.1,3.1,0,0,1,2.44.14l1.36.65a150.94,150.94,0,0,0,17.71,7.11c.79.26,1.54.64,2.45,1a37.9,37.9,0,0,1,1.1,3.78c1.38,7.41,2.57,14.85,3.4,22.35.79,7.18,1.09,14.38,1.29,21.58a235.12,235.12,0,0,1-1.14,28.62,228.85,228.85,0,0,1-3.42,23.36c-4.41,22-11.69,43-23,62.44a143.2,143.2,0,0,1-23.84,31,101.8,101.8,0,0,1-31,21.08,78.76,78.76,0,0,1-40.84,5.76,76.78,76.78,0,0,1-22.17-6.26,93.33,93.33,0,0,1-15.32-8.6,121.36,121.36,0,0,1-26.11-24.89,3.28,3.28,0,0,1-.63-3.69c.48-1.07.88-2.17,1.31-3.26a138.91,138.91,0,0,0,8.49-32.5,144.66,144.66,0,0,0,1-28.6c-.15-2.51-.48-5-.73-7.51a4.31,4.31,0,0,1,.71-2.85c2.36-3.66,4.67-7.35,7-11A4.67,4.67,0,0,1,779.56,2360.16Z"/><path d="M1146.86,1804.47a82.4,82.4,0,0,1,4.72,12.49,141.6,141.6,0,0,1,6,32,135.89,135.89,0,0,1-.3,23.61c-2.85,28.31-12.81,53.65-31.93,75a98.66,98.66,0,0,1-32,24,88.44,88.44,0,0,1-26.44,7.66c-17.87,2.28-34.71-1-50.7-9A101.91,101.91,0,0,1,983,1943a119.78,119.78,0,0,1-14.15-21.94,4,4,0,0,1-.76-2.81,6.28,6.28,0,0,1,2.64-1.38c20.19-7.28,37-19.49,51-35.53,14.25-16.24,24.32-34.85,31-55.34a167.07,167.07,0,0,0,7.26-32.83c.36-3.16.74-6.32,1.12-9.48,0-.39.79-.75,1.19-.59a13.82,13.82,0,0,1,1.38.57c1.48.78,2.94,1.6,4.42,2.4a152.2,152.2,0,0,0,44.37,15.7,139.73,139.73,0,0,0,28.52,2.43A22.72,22.72,0,0,1,1146.86,1804.47Z"/><path d="M646.61,2258.72a134,134,0,0,1-129.26-100.18c-.29-1.13-.61-2.26-.86-3.41-.73-3.45-.74-3.5,2.72-4.47,20.37-5.71,36.83-17.32,50.32-33.36A129.11,129.11,0,0,0,593.89,2072a146.54,146.54,0,0,0,6.53-45.08c0-1.34,0-2.68-.06-4a2.25,2.25,0,0,1,1.63-2.27c1.87-.73,3.76-1.41,5.66-2.09a2.31,2.31,0,0,1,1-.12,1.57,1.57,0,0,1,.9.33,4.44,4.44,0,0,1,.85,1.21,62.6,62.6,0,0,0,9.68,14.62,8,8,0,0,1,1.9,4.52c5.93,43,19.1,83.48,41,121a262.78,262.78,0,0,0,46.44,59.08c4.14,3.91,8.52,7.56,12.79,11.33q1.13,1,2.23,2a1,1,0,0,1-.14,1.33c-.65.52-1.29,1.07-2,1.54a133.22,133.22,0,0,1-48.25,20.46C665.9,2257.6,653.6,2258.9,646.61,2258.72Z"/><path d="M870.4,1714c-.3,23.22-3.14,43.71-9.91,63.56a145.29,145.29,0,0,1-15,31.7A104.69,104.69,0,0,1,830,1828.37a72.83,72.83,0,0,1-22.85,15.26,54.68,54.68,0,0,1-41.64.15,70.36,70.36,0,0,1-19.57-12.11,96,96,0,0,1-13.4-14.27,130.17,130.17,0,0,1-14.46-24.08,8.19,8.19,0,0,1-.7-1.88,2.25,2.25,0,0,1,.2-1.41,8.24,8.24,0,0,1,1.27-1.54c20.06-21.34,34.26-46.18,44.09-73.63a239.62,239.62,0,0,0,11.25-44.75c.1-.66.26-1.31.43-2a1.63,1.63,0,0,1,1.56-1c1.67.17,3.33.4,5,.56,2.16.21,4.33.5,6.5.57a69.62,69.62,0,0,0,38.4-9.85c.72-.43,1.44-.85,2.17-1.26a1.82,1.82,0,0,1,1.88.12c.5.44,1,.9,1.47,1.37a143.9,143.9,0,0,0,33.57,24.53l1.33.72a3,3,0,0,1,1.48,1.94,9.62,9.62,0,0,1,.32,1.47c.45,4.16,1,8.32,1.3,12.49C870,1705.27,870.22,1710.79,870.4,1714Z"/><path d="M495.64,2143.07a79.91,79.91,0,0,1-42.37-12.44A97.07,97.07,0,0,1,429,2108.94a119.51,119.51,0,0,1-21-39.77,137.69,137.69,0,0,1-5.4-26,154.09,154.09,0,0,1-.74-20.59,143.44,143.44,0,0,1,2.27-20.47,22.27,22.27,0,0,1,.66-2.42.89.89,0,0,1,1.15-.6c1.17.65,2.35,1.28,3.49,2a218.14,218.14,0,0,0,48.44,21.89,225.68,225.68,0,0,0,34.26,7.84,231.83,231.83,0,0,0,38.09,2.58c7.37-.13,14.73-.68,22.07-1.48a227.29,227.29,0,0,0,33.57-6.27,16.4,16.4,0,0,1,2.94-.43c.22,0,.61.34.68.59a7.84,7.84,0,0,1,.25,2c-.12,25-6,48.46-19.21,69.87a102.78,102.78,0,0,1-24.61,27.66,82.72,82.72,0,0,1-34.76,16.24A70.32,70.32,0,0,1,495.64,2143.07Z"/><path d="M374.18,1974.62a2.36,2.36,0,0,1-2,0,197.36,197.36,0,0,1-22.79-9.28,216.86,216.86,0,0,1-58.28-41.54,264.16,264.16,0,0,1-49.18-67.63,306.8,306.8,0,0,1-26.41-73.06q-3.67-16.19-5.71-32.66a344.74,344.74,0,0,1-2.41-46.16c.1-9.06.55-18.1,1.41-27.11a329.5,329.5,0,0,1,7.9-47c.27-1.12.39-2.32,1.59-3.15a15.28,15.28,0,0,1,1.78.62,109.44,109.44,0,0,0,25.1,8.71c1,.22,1.43,1.06.88,1.81-.69.95-1.41,1.88-2.12,2.81a88.26,88.26,0,0,0-17.12,41.34c-3.26,30.78,6.11,56.89,29.16,77.74a84.44,84.44,0,0,0,43.44,20.69,76.4,76.4,0,0,0,24,.62c.66-.1,1.33-.1,2-.14s1.33.51,1.13,1.2c-.33,1.12-.69,2.24-1.05,3.35a182.73,182.73,0,0,0-5.64,20.84,186.47,186.47,0,0,0-3,20.37c-.48,5.35-.75,10.7-.71,16.07a175.88,175.88,0,0,0,16.49,73.48,189.35,189.35,0,0,0,37.23,53.34c1.18,1.2,2.39,2.35,3.54,3.57A6.24,6.24,0,0,1,374.18,1974.62Z"/><path d="M288.63,1520.93a5.81,5.81,0,0,1,.46,1.32c.26,2.67.47,5.34.69,8a156.67,156.67,0,0,0,26.55,75.48c.93,1.39,1.88,2.77,2.81,4.16a1.51,1.51,0,0,1-.32,1.81c-.4.31-.79.63-1.21.9a94.78,94.78,0,0,1-37.34,14.08c-22.61,3.3-43.66-1.35-63.14-13.14a111,111,0,0,1-33.63-32,132.66,132.66,0,0,1-20.16-45.17,141.77,141.77,0,0,1-3.91-40.39c1.17-24.39,7.72-47.18,20.77-68a20.79,20.79,0,0,1,3.51-4.85c.12-.1.36-.23.45-.17a1.69,1.69,0,0,1,.73.61,5.6,5.6,0,0,1,.37,1.45,182,182,0,0,0,4.18,19.65,156.59,156.59,0,0,0,15.77,38.48,105.7,105.7,0,0,0,17.78,23,70.47,70.47,0,0,0,21.53,14.55,55.05,55.05,0,0,0,23,4.5,56.28,56.28,0,0,0,17.21-3.28A10.17,10.17,0,0,1,288.63,1520.93Z"/><path d="M1113.83,1553.56l4.15,2.57a107.42,107.42,0,0,0,34.81,14,101,101,0,0,0,22,1.91c17.67-.26,34-5.22,49.29-13.93a122.46,122.46,0,0,0,24.77-18.81c1.32-1.29,2.56-2.67,3.93-3.9,1.06-1,1.62-2.6,3.42-2.57,1.12,1.16,1.08,2.75,1.38,4.15a132.07,132.07,0,0,1,2.82,26.46,134.37,134.37,0,0,1-6.51,43.57,114.79,114.79,0,0,1-19.23,36.23,90.75,90.75,0,0,1-20.55,19.11,72.47,72.47,0,0,1-26.69,11.25,68.45,68.45,0,0,1-21,1,74,74,0,0,1-35.15-13.86,93.48,93.48,0,0,1-22-22.6,118.09,118.09,0,0,1-17.09-36.75,122,122,0,0,1-4.42-26.23c0-.67-.09-1.34-.1-2a2.4,2.4,0,0,1,1.31-2.49c.3-.14.59-.32.89-.47a84.47,84.47,0,0,0,21.7-15.3,10.38,10.38,0,0,1,1.62-1.14A2.29,2.29,0,0,1,1113.83,1553.56Z"/><path d="M823.67,2510.57c-.8,41.7-30.3,77.81-70.33,87.51a91.13,91.13,0,0,1-25.41,2.69,92.58,92.58,0,0,1-86.34-69.91,4.13,4.13,0,0,1-.1-1.48,1,1,0,0,1,.55-.7,4.84,4.84,0,0,1,1.45-.32q3.51-.28,7-.51a122.24,122.24,0,0,0,47.16-13c22.91-11.52,40.8-28.49,54.21-50.28.79-1.28,1.57-2.57,2.37-3.85a1.1,1.1,0,0,1,1.72-.09c1.13,1.23,2.25,2.49,3.37,3.73A126.51,126.51,0,0,0,781.48,2484a98.36,98.36,0,0,0,32.73,15c2.44.6,4.92,1,7.38,1.53a1.93,1.93,0,0,1,1.78,2C823.5,2505.21,823.57,2507.89,823.67,2510.57Z"/><path d="M569.22,1549.49a26.06,26.06,0,0,1,2.95-.77,62.68,62.68,0,0,0,33.24-15.44l3.13-2.72c.85.67,1.65,1.25,2.4,1.9,2.66,2.31,5.24,4.71,7.95,7a159.28,159.28,0,0,0,24.46,16.71c1,.57,2.07,1.1,3.08,1.69a3.22,3.22,0,0,1,1.71,2.34c.62,3.8,1.45,7.58,1.88,11.4a116.47,116.47,0,0,1,0,26.6,112.4,112.4,0,0,1-17.09,48.39,101.47,101.47,0,0,1-22.86,25.22,89.61,89.61,0,0,1-40.38,18.17,84.07,84.07,0,0,1-24.53.71c-23.19-2.77-42.2-13.39-57.91-30.37-.68-.73-1.25-1.56-1.86-2.36a1.07,1.07,0,0,1,.23-1.34c1.32-.71,2.64-1.44,4-2.1a140.35,140.35,0,0,0,40.94-30.42,153.18,153.18,0,0,0,35.25-61.89c.81-2.73,1.45-5.5,2.19-8.25C568.37,1552.46,568.79,1551,569.22,1549.49Z"/><path d="M326.62,1619.84a14.7,14.7,0,0,1,1.62,1.26c1.4,1.44,2.73,3,4.12,4.4A145.66,145.66,0,0,0,351.27,1642c1.08.79,2.1,1.64,3.1,2.53a1,1,0,0,1,.12.92,34.76,34.76,0,0,1-2.1,2.8,67,67,0,0,0,12.92,97.55c.82.58,1.62,1.18,2.42,1.79a.86.86,0,0,1,.09,1.29c-.69.73-1.36,1.48-2.11,2.15a75.83,75.83,0,0,1-39.25,19,76.92,76.92,0,0,1-83.79-46.63A75.08,75.08,0,0,1,237,1690a76.35,76.35,0,0,1,21-48.85c.23-.24.48-.47.69-.73a5.19,5.19,0,0,1,4.84-2,41.92,41.92,0,0,0,4.52.05,101.1,101.1,0,0,0,45-10.85c3.6-1.78,7-3.9,10.53-5.88C324.53,1621.1,325.52,1620.49,326.62,1619.84Z"/><path d="M485.62,2153.57c1.48,0,2.82-.1,4.15,0a62.55,62.55,0,0,0,11.55,0c.67-.06,1.34-.08,2-.1a1.74,1.74,0,0,1,1.91,1.26q.47,1.69.9,3.4c9.5,38.44,31.11,68.16,64.37,89.51.85.54,1.73,1,2.58,1.57,1.81,1.14,2,1.65,1.25,3.72a125.26,125.26,0,0,0-6.2,23.27c-.62,3.8-1,7.64-1.5,11.46a2,2,0,0,1-1.57,1.73,9.5,9.5,0,0,1-1.46.38,87.58,87.58,0,0,1-25,.47,80.94,80.94,0,0,1-31.19-10.6c-21.11-12.58-34.38-30.95-39.93-54.89-4.65-24.48-.07-47,14.61-67.22C483.13,2156.08,484.1,2154.48,485.62,2153.57Z"/><path d="M871.15,1456.33a23.74,23.74,0,0,1,6.77-1.18c15.67-.74,29.42,4,41,14.7a52.29,52.29,0,0,1,16.76,31.34c4.93,33.22-18.15,57.67-43.24,62.52A54.86,54.86,0,0,1,830,1528.77a8.07,8.07,0,0,1-.52-1.93,2.35,2.35,0,0,1,.31-1.43,15.72,15.72,0,0,1,1.63-1.91,186.16,186.16,0,0,0,38.11-63.36c.34-.94.69-1.89,1.07-2.82A8.52,8.52,0,0,1,871.15,1456.33Z"/><path d="M404.48,1747.11a55.75,55.75,0,0,1-54.92-41.81c-4.88-19.25-.47-36.49,12.41-51.58.54-.64,1.15-1.22,1.74-1.81a1.91,1.91,0,0,1,2.28-.47c.9.45,1.78.93,2.67,1.4a135.13,135.13,0,0,0,31.94,11.88A131.84,131.84,0,0,0,438,1668c4.34-.25,8.66-.94,13-1.43a8.59,8.59,0,0,1,2-.14,2,2,0,0,1,1.23.72,10.88,10.88,0,0,1,1.16,2.21,54.71,54.71,0,0,1,3.86,29c-2.73,18.48-12.24,32.36-28.35,41.65C422.6,1744.86,414.35,1746.86,404.48,1747.11Z"/><path d="M876.87,2307.72a55.38,55.38,0,0,1-44.28,54.39c-16.49,3.45-31.6-.21-45.15-10.24a17,17,0,0,1-1.91-1.63,1.85,1.85,0,0,1-.54-1.83,25.07,25.07,0,0,1,.82-2.37,126.08,126.08,0,0,0,6.79-23.63,127.46,127.46,0,0,0,2-32.53,136.48,136.48,0,0,0-2.25-17.44,18.66,18.66,0,0,1-.22-2.5,1.11,1.11,0,0,1,1-.88c.82.16,1.65.27,2.44.5a187.09,187.09,0,0,0,24.57,5.19,165,165,0,0,0,24.57,1.63,152.19,152.19,0,0,0,20.08-1,2.84,2.84,0,0,1,2.94,1.46,54.14,54.14,0,0,1,7.86,18.39A49.63,49.63,0,0,1,876.87,2307.72Z"/><path d="M789.9,1657.42a59.52,59.52,0,0,1-55.8-79.75,18.4,18.4,0,0,1,1-2.32,2.59,2.59,0,0,1,1.92-1.46l5.94-1A144.58,144.58,0,0,0,776,1563c1.08-.46,2.14-.94,3.23-1.39,1.37-.56,2.09-.13,2.45,1.46.11.49.17,1,.27,1.48a191.66,191.66,0,0,0,26.55,65.73,169.83,169.83,0,0,0,10.93,15c.53.65,1,1.33,1.5,2a1.11,1.11,0,0,1-.12,1.37,24,24,0,0,1-2.07,1.39A57.8,57.8,0,0,1,789.9,1657.42Z"/><path d="M600.87,1522.46c-.86.92-1.39,1.57-2,2.13a50.81,50.81,0,0,1-28.1,13.47c-30.51,4.09-53.18-16.36-58.7-39.19a2.66,2.66,0,0,1-.2-1,2.74,2.74,0,0,1,.53-1.35,8.16,8.16,0,0,1,1.62-1.18,76.18,76.18,0,0,0,19.28-18.17,116.37,116.37,0,0,0,16.44-30.36c1.17-3.13,2.13-6.34,3.22-9.51a15.18,15.18,0,0,1,1.17-2.75c.2-.33.83-.48,1.29-.58a1,1,0,0,1,1.15.74c.41,1.27.74,2.57,1,3.88a189.35,189.35,0,0,0,33.51,71.83c2.43,3.2,5.07,6.24,7.61,9.35C599.35,1520.56,600,1521.33,600.87,1522.46Z"/><path d="M928.62,1923.13a135.83,135.83,0,0,0,15.57-.34c3.49-.31,7-.93,10.43-1.45,1.83-.27,2.22-.1,3.12,1.65.31.59.58,1.21.88,1.81a132.33,132.33,0,0,0,16.84,26.09,13.45,13.45,0,0,1,1.5,2,1.94,1.94,0,0,1,.08,1.42,7.2,7.2,0,0,1-1,1.72c-12.24,17.15-28.37,28.64-49,33.56a45.36,45.36,0,0,1-8.4,1.4,1.11,1.11,0,0,1-1.2-1.24c.16-.82.33-1.64.53-2.45a118.62,118.62,0,0,0,2.54-13.3,130.69,130.69,0,0,0,.91-28.54,144.46,144.46,0,0,0-3.2-20.81,8,8,0,0,1-.09-1.49,1,1,0,0,1,1-.92Z"/><path d="M656,1993.55c.35.84.8,1.73,1.11,2.67a133.27,133.27,0,0,0,23.13,43.06,14.23,14.23,0,0,1,1.37,2.08.88.88,0,0,1-.18.84,10.5,10.5,0,0,1-2.31.93,52.26,52.26,0,0,1-5.41,1.08c-24.73,3.12-44.38-10.3-53.13-28.11a3.58,3.58,0,0,1-.46-1.41,1.91,1.91,0,0,1,.45-1.31,6.49,6.49,0,0,1,1.71-1,218.67,218.67,0,0,0,31.3-17.94A3.33,3.33,0,0,1,656,1993.55Z"/><path class="cls-1" d="M634.55,951a5,5,0,0,0-1.23.79c-1.09,1.27-2.12,2.6-3.15,3.92L506.94,1113.43c-.93,1.19-1.85,2.38-2.83,3.53a6.31,6.31,0,0,1-1.24.88,6.52,6.52,0,0,1-1.13-1c-.85-1.24-1.65-2.53-2.45-3.81l-51-81.41a15.62,15.62,0,0,0-2.87-4,2.53,2.53,0,0,0-1.31,1.6q-2.52,7.63-5.06,15.26l-12.64,38.17a25,25,0,0,1-1,2.85c-.31.66-.24,1.8-1.33,1.75-.73,0-1-.83-1.26-1.43-.48-1.07-.91-2.16-1.37-3.24l-15.94-37.47q-3.94-9.25-7.88-18.5a27.16,27.16,0,0,1-1.19-3.3,1.93,1.93,0,0,1,.21-1.43c.84-1.25,1.77-2.44,2.72-3.61Q411,1004,422.6,989.82L598,774.57c1-1.17,1.94-2.31,2.93-3.44a1.11,1.11,0,0,1,1.71.25c.74,1.31,1.48,2.63,2.17,4l154.29,299.45c.54,1,1.06,2.09,1.6,3.14a2.78,2.78,0,0,1-.18,2.86l-4.35,7.36q-4.73,8-9.48,16c-.51.86-1.11,1.67-1.68,2.49a.86.86,0,0,1-1.3,0c-1-1.34-2-2.66-3-4q-29.93-42.9-59.84-85.8Q659.44,986.07,638,955.34C637,953.85,636.13,952.16,634.55,951Z"/><path class="cls-1" d="M717.07,1383.6H571.72c-1.84,0-3.68-.07-5.52-.13a1,1,0,0,1-.63-1.51c.78-1.09,1.56-2.18,2.39-3.23l108.42-138.65,48.33-61.79q1.39-1.78,2.84-3.52a1.28,1.28,0,0,1,2.11.08c.78,1.09,1.54,2.19,2.29,3.3q67.36,100.13,134.71,200.27c.84,1.25,1.58,2.56,2.36,3.85a.91.91,0,0,1-.6,1.15,14.82,14.82,0,0,1-1.49.17c-1.51,0-3,0-4.53,0Z"/><path class="cls-1" d="M544.69,1291.74c-.75,1.29-1.31,2.31-1.92,3.3q-10,16-20,32-.67,1.06-1.38,2.1c-.52.74-1.44.67-2-.18-.85-1.24-1.7-2.49-2.52-3.76q-8.76-13.5-17.5-27c-.82-1.26-1.69-2.47-2.59-3.78a4.8,4.8,0,0,0-1.39.72c-1.11,1.26-2.14,2.58-3.18,3.89q-31.51,39.83-63,79.65c-4.15,5.24-2.65,4.57-9.6,4.52q-31.93-.2-63.86-.5c-1.33,0-2.66-.13-3.78-.18-1.52-1.35-1.85-3.06-2.48-4.59-3.55-8.68-7-17.39-10.55-26.09l-14.13-34.94c-.44-1.09-.92-2.16-1.26-3.28a2.06,2.06,0,0,1,.15-1.44c.81-1.47,1.69-2.89,2.59-4.3l49.54-78.12Q412.4,1172,449,1114.27c1.07-1.68,1.89-3.56,3.54-4.91a5.44,5.44,0,0,1,1.13,1c.6,1,1.09,2.08,1.61,3.12l87.05,173.38C543.12,1288.39,543.82,1289.91,544.69,1291.74Z"/><path class="cls-1" d="M1297.81,1266.27a22.15,22.15,0,0,1-1.23,2.11q-13.41,18.23-26.85,36.44a14,14,0,0,1-1,1.11c-.32.35-1.16.32-1.33-.06-.53-1.23-1.08-2.44-1.55-3.69q-16-42.06-31.92-84.12-21.73-57.35-43.44-114.7c-.47-1.25-.94-2.51-1.48-3.74a5.62,5.62,0,0,0-.86-1.11c-1.26.55-1.63,1.76-2.22,2.73-3.65,6-7.24,12.08-10.85,18.12L1102,1241.46c-.77,1.29-1.54,2.6-2.37,3.85a5.54,5.54,0,0,1-1.1,1c-1.39-1-1.68-2.54-2.28-3.89-4.86-11-9.66-22.11-14.49-33.17q-2.92-6.68-5.86-13.35c-.4-.91-.88-1.78-1.29-2.62a2.13,2.13,0,0,0-1.64,1.22c-2.81,4.77-5.6,9.54-8.43,14.29a12.19,12.19,0,0,1-1.51,2,.89.89,0,0,1-.84,0,21,21,0,0,1-1.46-2.62q-8-17.62-16-35.26-7.57-16.72-15.13-33.44c-.69-1.52-1.32-3.06-2-4.54a21.36,21.36,0,0,1,2.68-5q13.9-22.74,27.82-45.47,30.07-49.1,60.14-98.2c.87-1.43,1.83-2.8,2.76-4.19a.83.83,0,0,1,1.28,0c.85,1.24,1.72,2.47,2.51,3.75q15.87,25.66,31.72,51.34,69.12,111.87,138.24,223.74A27.49,27.49,0,0,1,1297.81,1266.27Z"/><path class="cls-1" d="M905.41,1232.58c-1.28.79-1.8,2.07-2.52,3.18q-9.91,15.45-19.78,30.91l-34.91,54.65c-.9,1.41-1.83,2.8-2.78,4.19a1.24,1.24,0,0,1-2.08-.14q-.6-.81-1.16-1.64-10.67-15.85-21.33-31.7c-.56-.83-1-1.71-1.5-2.49.51-1.82,1.78-3,2.79-4.3q17.08-22.07,34.19-44.11L983,1077.83c1.23-1.59,2.51-3.14,3.79-4.68a1,1,0,0,1,1.64.19c.6,1.2,1.21,2.39,1.76,3.61q31.9,70.51,63.79,141c2.61,5.78,2.67,4.2-.48,9.57q-25.34,43.12-50.78,86.19c-.84,1.42-1.41,3.05-2.91,4.1-.37-.35-.86-.63-1.05-1-.58-1.21-1-2.46-1.56-3.71q-7.88-19.31-15.76-38.62c-.44-1.08-1-2.13-1.46-3.19a.83.83,0,0,0-1.28-.07c-.88,1.22-1.78,2.43-2.6,3.68q-11.66,17.9-23.29,35.82c-4.33,6.66-3.68,6.54-7.09-.17q-18.55-36.52-37.09-73c-.68-1.34-1.35-2.7-2.11-4C906.27,1233.11,905.77,1232.87,905.41,1232.58Z"/><path class="cls-1" d="M602.41,1047.56a5.39,5.39,0,0,0-1.17.9c-.9,1.21-1.74,2.47-2.58,3.72l-89.29,132.09c-1,1.52-2.12,3-3.2,4.51a1.11,1.11,0,0,1-1.7-.22c-.41-.73-.82-1.46-1.2-2.21q-7-13.93-14-27.86c-.38-.75-.75-1.5-1.08-2.27a2.36,2.36,0,0,1,.18-2.39c.78-1.09,1.6-2.15,2.42-3.21L575.65,1042l54.51-69.76c.93-1.19,1.88-2.36,2.84-3.52a1.09,1.09,0,0,1,1.72-.07c.72.92,1.44,1.84,2.11,2.8q6.48,9.27,12.95,18.57,66.73,95.72,133.46,191.45c4.07,5.84,3.8,4.17.51,10.06-4,7.17-8.14,14.27-12.23,21.39-.49.86-.86,1.86-2,2.14-1.31-.82-1.92-2.25-2.75-3.49q-11-16.25-21.91-32.54-6.6-9.81-13.2-19.61c-.56-.83-1.17-1.63-1.77-2.43a.77.77,0,0,0-1.25-.05c-1,1.15-1.95,2.3-2.88,3.48q-22.78,29.12-45.56,58.24c-.92,1.18-2,2.28-3,3.39-.26.29-.58.2-.9-.06a4.88,4.88,0,0,1-1.23-2.14q-4.87-11.59-9.74-23.17Q635,1124.35,604.74,1052C604.1,1050.5,603.76,1048.8,602.41,1047.56Z"/><path class="cls-1" d="M862.07,636.37a8.32,8.32,0,0,1,1.13,1.08Q936.88,742,1010.54,846.64a4.36,4.36,0,0,1,.34,1.13c-.46.75-.93,1.63-1.51,2.44q-12.1,17-24.22,34A13,13,0,0,1,983.5,886a.89.89,0,0,1-.87,0,12.23,12.23,0,0,1-1.43-2q-5.06-9.26-10.08-18.55l-18-33.13c-.64-1.18-1.29-2.35-2-3.51s-1.51-1.06-2.33,0-1.78,2.43-2.66,3.66l-24.15,34q-14.26,20.09-28.53,40.17c-.87,1.22-1.84,2.38-2.79,3.54a1.43,1.43,0,0,1-1.82-.13,18,18,0,0,1-1.08-1.68c-3.8-7.27-7.55-14.58-11.41-21.82a6.45,6.45,0,0,1-.61-4.84,144.93,144.93,0,0,0,3.42-22.33,125.43,125.43,0,0,0,.16-19.09,146.36,146.36,0,0,0-4.56-28.74c-9-33.62-27.64-60.69-55.55-81.42-.67-.5-1.4-.93-2-1.48-1.86-1.62-4.52-2.25-5.76-4.63.61-2.3,2-4.18,3.19-6.2q22.06-38.63,44.17-77.23c.67-1.16,1.31-2.34,2.05-3.45A4.45,4.45,0,0,1,862.07,636.37Z"/><path class="cls-1" d="M1172.46,1385.26H1069.38c-6.64,0-7.26-.06-7.2-.78.21-2.46,2-4.14,3.24-6.06,9.67-15.1,19.57-30.05,29.06-45.26,13.39-21.47,27.22-42.65,40.87-64s27.41-42.54,41.13-63.8c.9-1.4,1.91-2.73,2.92-4.06a.89.89,0,0,1,.85,0,26,26,0,0,1,2,2.87q8.21,14.41,16.37,28.85l81.77,144.32c.83,1.46,1.63,2.93,2.49,4.37,1.89,3.19,1.08,3.56-2.29,3.54H1172.46Z"/><path class="cls-1" d="M835,1104.06c-.45.09-.91,0-1,.23-.77,1.09-1.52,2.2-2.18,3.35q-16.23,28.35-32.43,56.72c-1.66,2.91-3.32,5.82-5,8.72-.5.86-1.06,1.68-1.64,2.59-.56-.26-1.12-.36-1.4-.69-.76-.89-1.42-1.87-2.09-2.83q-17.83-25.56-35.64-51.14c-.86-1.23-1.65-2.5-2.39-3.62.37-1.93,1.45-3.25,2.3-4.68q13.68-23.15,27.4-46.28l69.94-118c.68-1.15,1.35-2.32,2.09-3.43.26-.39.74-.92,1.11-.91.71,0,1,.73,1.25,1.34.44,1.09.84,2.19,1.25,3.29l18,48.51q24.56,66.18,49.1,132.36c2.34,6.32,2.57,4.9-1.58,10.26q-14.31,18.48-28.64,37c-.62.79-1.29,1.55-1.85,2.38a4.61,4.61,0,0,1-4.25,2.12c-2.85-.05-5.7.07-8.55.08-.82,0-1.65-.14-2.41-.21a23.74,23.74,0,0,1-2.9-4.84q-14.48-27.3-29-54.61-3.88-7.33-7.78-14.64C836.14,1106,835.52,1105,835,1104.06Z"/><path class="cls-1" d="M920.59,993.8a20.47,20.47,0,0,1-1.34,2q-11,13.12-22,26.21c-.54.64-1.1,1.27-2.3.85-.68-1.72-1.45-3.57-2.14-5.45Q875.61,971,858.4,924.6c-.41-1.1-.78-2.21-1.26-3.28a5.36,5.36,0,0,0-1-1.13c-1.4.9-1.9,2.38-2.66,3.65q-11.83,19.88-23.61,39.79l-59.2,99.94c-.68,1.15-1.35,2.32-2.1,3.43a5.21,5.21,0,0,1-1.12.94c-1.33-1-1.79-2.49-2.47-3.81q-7.86-15.18-15.66-30.39-14.74-28.6-29.49-57.2c-2.2-4.28-2.21-3.7.75-7.48l79.84-101.66q14.13-18,28.27-36c1.14-1.45,2.32-2.86,3.5-4.28a1,1,0,0,1,1.68.24c.66,1.17,1.31,2.34,1.92,3.52l20.24,38.78,62.08,119A31.57,31.57,0,0,1,920.59,993.8Z"/><path class="cls-1" d="M600.36,1068.94c1.37,1.43,1.79,3.26,2.5,4.93q11,26.17,22,52.37l42.34,101c.58,1.39,1.1,2.81,1.67,4.2a2,2,0,0,1-.25,1.9,22.53,22.53,0,0,1-1.48,2q-19.51,25-39,49.9a24.63,24.63,0,0,1-2.39,2.55.93.93,0,0,1-.92,0,18.74,18.74,0,0,1-1.93-2.28q-8.1-11.52-16.15-23.06-9.95-14.21-19.91-28.41c-.77-1.09-1.62-2.12-2.45-3.17a1,1,0,0,0-1.33.13c-.84,1.25-1.7,2.49-2.5,3.76q-12.95,20.66-25.88,41.33c-.89,1.41-1.87,2.77-2.82,4.14a.81.81,0,0,1-1.26-.1c-.5-.87-1-1.73-1.48-2.62q-18.39-36.6-36.75-73.22c-.38-.75-.72-1.51-1.09-2.26a2.34,2.34,0,0,1,.08-2.38c.62-1,1.27-2,1.93-2.94L596.84,1073c.75-1.11,1.48-2.24,2.3-3.29A4.54,4.54,0,0,1,600.36,1068.94Z"/><path class="cls-1" d="M918.52,695.69c-.64.26-1.29.44-1.8-.23-1-1.34-2-2.67-3-4q-24.63-34.94-49.27-69.88c-1-1.48-1.87-3.16-3.4-4.23-1.36.74-1.76,2.1-2.42,3.24-4.69,8.13-9.33,16.29-14,24.43a18,18,0,0,1-1.73,2.43.93.93,0,0,1-.88,0,26.47,26.47,0,0,1-1.63-3.09q-4.56-10.62-9.08-21.27-12.71-29.83-25.42-59.66c-.59-1.39-1.23-2.75-1.9-4.1a1,1,0,0,0-.76-.41,1.14,1.14,0,0,0-.8.47c-.76,1.3-1.49,2.62-2.19,4l-19.2,36.49q-8.43,16-16.88,32-1.05,2-2.18,4c-.15.25-.59.61-.71.55a2.82,2.82,0,0,1-1.1-.93,11.56,11.56,0,0,1-.76-1.85Q747.61,603,735.8,572.56c-.3-.78-.53-1.59-.87-2.59.62-1.56,1.26-3.28,2-5q18.72-43.39,37.46-86.77,14.94-34.62,29.88-69.23c.66-1.53,1.46-3,2.25-4.46.05-.09.72,0,.79.09.67,1.34,1.34,2.69,1.87,4.09q8.6,22.55,17.15,45.11,45.19,118.88,90.39,237.75c.53,1.41,1.14,2.79,1.71,4.18Z"/><path class="cls-1" d="M1021.95,1122.25c-.84-1.75-1.66-3.39-2.41-5.06q-13.58-30-27.15-60c-.48-1.07-.93-2.16-1.47-3.2a5.79,5.79,0,0,0-1-1.09c-1.35.62-2,1.87-2.78,2.91q-15.43,19.85-30.84,39.73-10.33,13.31-20.65,26.62a18.13,18.13,0,0,1-2.06,2.16.89.89,0,0,1-.85-.16,12.85,12.85,0,0,1-1.11-2.22q-4.67-12.47-9.31-25-10.68-28.74-21.33-57.49c-1.68-4.57-2-3.66,1.22-7.55l76.58-91.34q7.43-8.86,14.86-17.73c1-1.15,2-2.26,3-3.37a1.08,1.08,0,0,1,1.69.33c.64,1.18,1.27,2.36,1.88,3.56q9.47,18.87,18.94,37.75,21.66,43.13,43.3,86.26c3.38,6.75,3.57,4.59-.48,11.22q-18.07,29.62-36.23,59.18c-.79,1.29-1.56,2.59-2.44,3.81C1023.12,1122,1022.52,1122,1021.95,1122.25Z"/><path class="cls-1" d="M196.81,1354.32c-.47-1-1-1.87-1.31-2.8q-7.92-20.37-15.8-40.76a14.54,14.54,0,0,1-.76-2.39,2.35,2.35,0,0,1,.18-1.45c.7-1.33,1.49-2.62,2.28-3.9l38.5-61.9,81.52-131c.88-1.42,1.8-2.83,2.73-4.22.51-.77,1.5-.6,1.95.32.66,1.36,1.3,2.72,1.93,4.09l47.46,104.29q3.33,7.32,6.67,14.63a3.19,3.19,0,0,1-.23,3.33c-.56.84-1.06,1.71-1.6,2.55q-19.39,30.56-38.81,61.11c-.85,1.33-1.25,3.13-3.12,3.6-1.43-.89-1.58-2.52-2.13-3.87q-15.7-38.64-31.31-77.32c-.69-1.71-1.41-3.41-2.16-5.09a1,1,0,0,0-.74-.46,1.16,1.16,0,0,0-.84.42c-.66,1-1.28,2-1.87,3l-23.28,39.38-55.51,93.9c-.77,1.3-1.53,2.6-2.38,3.84C197.95,1353.93,197.37,1354,196.81,1354.32Z"/><path class="cls-1" d="M636.85,599.76c-.54-.5-1-.76-1.21-1.16-.59-1.2-1.08-2.45-1.58-3.69q-11.52-28.42-23-56.83c-.5-1.23-1.08-2.43-1.7-3.61-.09-.17-.56-.14-1-.24-.48,1.21-1,2.45-1.45,3.69q-15.48,40.36-31,80.72c-.6,1.56-1.32,3.06-2,4.58-.06.13-.29.3-.39.28a1.45,1.45,0,0,1-.77-.39,5.62,5.62,0,0,1-.74-1.31q-4.76-11.63-9.49-23.27c-.19-.46-.31-1-.46-1.43a26.31,26.31,0,0,1,2.11-5.64Q581.53,550.24,599,509q34.21-80.77,68.43-161.55c.78-1.85,1.63-3.66,2.49-5.48a.84.84,0,0,1,1.55,0c.66,1.17,1.32,2.33,1.94,3.52q39,75.19,78.07,150.38a15.79,15.79,0,0,1,2,4.72c-.39,1-.8,2.08-1.26,3.15q-10.34,24-20.69,48a15.51,15.51,0,0,1-1.08,2.27c-.24.37-.77.55-1.33.93-.7-1.66-1.38-3.18-2-4.73q-15.81-40.77-31.61-81.55l-23.24-60c-.42-1.09-.85-2.19-1.28-3.27-.24-.6-.91-1.11-1.1-.87a2,2,0,0,0-.48.74q-1,5.69-2,11.39-2.36,14.13-4.7,28.26c-1.5,9.09-3,18.19-4.48,27.28s-3.06,18.18-4.56,27.27-3,18.19-4.49,27.28q-2.21,13.39-4.45,26.78-2.3,13.88-4.6,27.77-1.37,8.18-2.8,16.35C637.3,598.32,637.08,598.92,636.85,599.76Z"/><path class="cls-1" d="M342.4,1042.37a3.86,3.86,0,0,1,.12-1.46c.79-1.48,1.67-2.9,2.54-4.34Q386.18,968.28,427.3,900q54.37-90.26,108.77-180.5c.86-1.43,1.81-2.81,2.72-4.21a.9.9,0,0,1,1.3.12c.78,1.48,1.58,2.94,2.3,4.45q14.25,30.25,28.48,60.51c.93,2,1.85,3.95,2.75,5.93a2.22,2.22,0,0,1-.31,2.37c-1.12,1.46-2.29,2.89-3.46,4.32L485,897.11,397.94,1004c-1.8,2.21-3.65,4.38-5.48,6.55a1.08,1.08,0,0,1-1.68-.32c-.69-1.53-1.39-3.05-2-4.59-2.37-5.55-4.72-11.11-7.09-16.65-.46-1.07-1-2.12-1.51-3.28-.54.3-1.09.43-1.34.78-.89,1.22-1.67,2.51-2.49,3.78l-30.61,47.89c-.81,1.27-1.65,2.53-2.52,3.75-.16.22-.56.27-.86.4Z"/><path class="cls-1" d="M1025.31,827.46a90.29,90.29,0,0,1-7,10,1.18,1.18,0,0,1-1.75-.15c-.8-1.07-1.6-2.15-2.37-3.25q-33.9-48.08-67.81-96.16a39.28,39.28,0,0,1-4.63-8.86q-33.45-88.1-67-176.17c-2.22-5.84-2.31-4.34.32-9.87q11.67-24.51,23.4-49c.61-1.27.72-3,2.5-3.45,1.16.85,1.32,2.24,1.76,3.44q23.18,63,46.32,125.94,37.12,100.94,74.24,201.88C1024.07,823.65,1024.67,825.56,1025.31,827.46Z"/><path class="cls-1" d="M675.88,582.37c-1.17.46-1.44,1.53-1.91,2.38q-6.94,12.54-13.82,25.11-8.48,15.42-17,30.83c-.56,1-1.24,2-1.89,2.95-.07.11-.36.21-.43.16s-.54-.42-.52-.59q1.06-7,2.2-13.9,2.33-14.13,4.69-28.26,2.28-13.63,4.57-27.27c1.16-6.94,2.28-13.89,3.42-20.83q2.21-13.39,4.42-26.78,2.27-13.64,4.57-27.27,2.36-14.13,4.7-28.26c1.15-6.94,2.27-13.89,3.43-20.83.36-2.14.78-4.27,1.16-6.34.45,0,.92-.11,1,0a12,12,0,0,1,1.18,2.17q4.76,12.17,9.48,24.36l89.72,231.53c.67,1.72,1.31,3.44,1.93,5.18.16.45.3,1-.22,1.32a2.15,2.15,0,0,1-1.4.22c-4.37-1.15-8.74-2.31-13.18-3.2a142.42,142.42,0,0,0-27.46-2.85c-6.84,0-5.6.91-8.38-5.46q-23.92-54.83-47.79-109.68c-.53-1.23-1.06-2.46-1.65-3.66A5.47,5.47,0,0,0,675.88,582.37Z"/><path class="cls-1" d="M994,906.29c-.42-.27-.78-.39-1-.63a42,42,0,0,1-4.37-8.6c.57-.89,1.14-1.91,1.81-2.85q25.86-36.19,51.75-72.35a1.05,1.05,0,0,1,.41-.27,4.38,4.38,0,0,1,.5-.17c1.31,1.14,1.74,2.8,2.43,4.29q9.87,21.18,19.67,42.39,23.27,50.13,46.54,100.27a20.45,20.45,0,0,1,2.09,5.28c-.41.75-.85,1.65-1.37,2.5q-19.41,31.73-38.84,63.44a12.23,12.23,0,0,1-1.53,2c-.15.16-.77.2-.87.07a19.87,19.87,0,0,1-1.57-2.54q-6.46-12.78-12.89-25.58l-54.33-108.23c-.68-1.35-1.4-2.67-2.12-4a1,1,0,0,0-1.67-.08c-1,1.13-2,2.29-3,3.4C995.21,905.2,994.58,905.74,994,906.29Z"/><path class="cls-1" d="M378,1007.61c1.06.68,1.29,1.85,1.74,2.9q6.7,15.72,13.4,31.44,12.1,28.44,24.2,56.89c2.36,5.56,2.3,4.3.41,10q-11.65,35.31-23.37,70.61a33.5,33.5,0,0,1-3.63,7.69c-6.25,9.73-12.4,19.52-18.61,29.28a24.52,24.52,0,0,1-2.12,2.77c-.13.15-.66.09-.91,0a1.76,1.76,0,0,1-.61-.77q-1-2-1.93-4.09-24.06-52.84-48.11-105.68c-.76-1.67-1.44-3.37-2.15-5a67.94,67.94,0,0,1,4.76-7.85q28-43.85,56.07-87.68a1,1,0,0,1,.4-.3A3.33,3.33,0,0,1,378,1007.61Z"/><path class="cls-1" d="M717.07,221.19a4.76,4.76,0,0,1,.89,1.07c.52,1.23,1,2.5,1.4,3.77Q743.19,296.48,767,366.95q8.77,25.95,17.54,51.9c.27.79.51,1.6.81,2.38,1.43,3.7.92,3.74-.34,6.69q-7.62,17.79-15.33,35.54-4.38,10.15-8.78,20.3c-.4.91-.91,1.78-1.38,2.66a.9.9,0,0,1-1.3,0c-.83-1.45-1.7-2.88-2.47-4.36Q743,457.53,730.28,433q-18.42-35.47-36.82-71c-2.38-4.6-2.69-3.63-1.46-10,2.24-11.68,4.36-23.39,6.56-35.08s4.43-23.37,6.62-35.07q3.24-17.29,6.44-34.59c1.41-7.58,2.8-15.16,4.24-22.73A6.66,6.66,0,0,1,717.07,221.19Z"/><path class="cls-1" d="M339.9,1383.27a16.49,16.49,0,0,1-2,.3c-1.51,0-3,0-4.52,0H200.16c-1.84,0-3.68-.06-5.52-.12a1,1,0,0,1-.81-1.45c.68-1.34,1.34-2.7,2.1-4,5.73-9.85,11.43-19.71,17.22-29.52q31.82-53.88,63.68-107.73.9-1.51,1.8-3c.43-.71.78-1.77,1.65-1.73,1.16.05,1.22,1.36,1.63,2.2s.76,1.86,1.13,2.79q13.48,33.3,27,66.59,14,34.7,28.07,69.4c.63,1.55,1.25,3.11,1.79,4.69A5.37,5.37,0,0,1,339.9,1383.27Z"/><path class="cls-1" d="M1048.15,1385.06c-4.64.32-17.2.28-21-.05a5.66,5.66,0,0,1-1.85-2.92q-4.06-10-8.14-20l-11-27c-.5-1.24-1-2.48-1.52-3.86a17.75,17.75,0,0,1,2.46-4.82q11.2-19.06,22.42-38.1,20-34,40-68c.85-1.44,1.78-2.82,2.7-4.21a.84.84,0,0,1,1.29.09c.46.89.94,1.77,1.34,2.68q15.6,35.66,31.18,71.34l.79,1.85a2.94,2.94,0,0,1-.13,2.88c-.8,1.28-1.61,2.55-2.43,3.81q-19.46,30.2-38.91,60.4c-4.89,7.6-9.74,15.24-14.63,22.85C1050,1383.15,1049.44,1384.4,1048.15,1385.06Z"/><path class="cls-1" d="M546.86,589.26c1.16.52,1.39,1.53,1.76,2.43q3.83,9.29,7.63,18.59L598.35,713c.51,1.24,1,2.48,1.51,3.72a3.37,3.37,0,0,1-.18,2.91c-.38.74-.79,1.48-1.19,2.21q-10.66,19.37-21.34,38.74c-.48.88-1.05,1.7-1.58,2.55a1,1,0,0,1-1.31,0c-.57-1-1.17-2-1.66-3.08q-8.48-17.95-16.93-35.91-6.32-13.41-12.63-26.82c-.57-1.21-1.22-2.38-1.85-3.56a.83.83,0,0,0-1.28-.09c-.93,1.39-1.88,2.77-2.74,4.2q-16.87,28-33.72,56-17.76,29.49-35.54,59c-.78,1.29-1.62,2.53-2.48,3.76-.11.16-.5.13-.77.15a.62.62,0,0,1-.11-.43c.57-1.75,1.12-3.51,1.74-5.24q39.17-108.45,78.35-216.89c.4-1.1.76-2.22,1.21-3.3A12.93,12.93,0,0,1,546.86,589.26Z"/><path class="cls-1" d="M611.34,765.5c-.54-.94-1.08-1.78-1.54-2.66q-2.45-4.67-4.86-9.36a2.66,2.66,0,0,0-1.55-1.41c-.73.81-1.55,1.64-2.28,2.54q-8.43,10.31-16.84,20.64a21.53,21.53,0,0,1-2.06,2.17,1.05,1.05,0,0,1-.93.11,1.08,1.08,0,0,1-.54-.74,2.7,2.7,0,0,1,.08-1.45c.72-1.51,1.51-3,2.32-4.45q9.69-17.61,19.39-35.21l68.79-125c.81-1.47,1.65-2.91,2.5-4.35.48-.81,1.43-.69,1.87.25q1,2,1.87,4.11l29.1,66.77q4.31,9.9,8.63,19.8c.53,1.23,1.06,2.46,1.55,3.71s0,2-1.15,2.2c-2.15.32-4.31.6-6.45,1-38.78,6.65-69.92,25.87-93.79,57-.92,1.2-1.76,2.45-2.72,3.61C612.45,765.11,611.91,765.21,611.34,765.5Z"/><path class="cls-1" d="M874.47,1200.26c-.3,1.64-1.32,2.58-2.13,3.62q-29.3,37.68-58.64,75.33a.87.87,0,0,1-.45.19,6.12,6.12,0,0,1-.66.09c-.45-.59-1-1.22-1.45-1.9Q794.59,1253,778,1228.4c-.37-.56-.73-1.12-1.09-1.69a2.23,2.23,0,0,1-.15-2.37q.95-1.77,1.95-3.51,13.83-24.21,27.67-48.41,12.35-21.59,24.71-43.16a19.19,19.19,0,0,1,2.74-4.26,4.68,4.68,0,0,1,1.22.89,28.65,28.65,0,0,1,1.47,2.63q18,33.95,36,67.9C873.26,1197.74,873.89,1199.1,874.47,1200.26Z"/><path class="cls-1" d="M942.3,1326.65c-1,1.61-1.76,2.9-2.57,4.16q-16.28,25.06-32.57,50.12c-.64,1-1.3,1.95-2,2.92a2.91,2.91,0,0,1-2.53,1.37H885.09a3,3,0,0,1-2.49-1.45q-.72-1-1.42-2.07-14-20.84-28-41.68c-2.56-3.81-2.73-3.24,0-7.46q24.35-38.09,48.68-76.19c2.75-4.31,2.79-4.3,5,.12q16.94,33.35,33.86,66.72C941.21,1324.25,941.68,1325.31,942.3,1326.65Z"/><path class="cls-1" d="M1263.36,1324.68c-.31-.06-.78,0-.9-.19-.94-1.37-1.88-2.76-2.71-4.21q-9.95-17.47-19.85-35-28.25-49.85-56.49-99.69c-.74-1.31-1.55-2.57-2.39-3.82-.14-.2-.59-.19-1.08-.33-1,1.47-2,3-3,4.51l-57.73,89.56c-.91,1.41-1.76,2.86-2.75,4.21-.64.87-.82,2.47-2.34,2.18-1.1-.21-1.2-1.52-1.59-2.4-2.58-5.82-5.1-11.66-7.64-17.5-.27-.61-.53-1.23-.78-1.85a2.8,2.8,0,0,1,.11-2.43c.8-1.47,1.67-2.9,2.53-4.34l57-95.31,19.1-31.91c.69-1.15,1.36-2.32,2.12-3.42a4.22,4.22,0,0,1,1.15-.83,6.9,6.9,0,0,1,1.69,3.12q6.24,16.44,12.49,32.88,30.61,80.81,61.21,161.62c.65,1.72,1.18,3.48,1.77,5.23Z"/><path class="cls-1" d="M986.48,915.43c-.85,1.11-1.43,1.93-2.07,2.69q-26.8,32-53.61,64c-.64.77-1.36,1.47-2.05,2.19a1,1,0,0,1-1.32-.21c-.44-.7-.92-1.39-1.3-2.13q-14.76-28.29-29.5-56.6c-.31-.59-.64-1.18-.9-1.79a2.4,2.4,0,0,1,.1-2.4q1.12-1.67,2.28-3.31,23.72-33.41,47.45-66.81c.87-1.22,1.83-2.38,2.76-3.56a1,1,0,0,1,1.33.14c.78,1.28,1.59,2.55,2.31,3.87q14.26,26.28,28.5,52.58c1.52,2.8,3.05,5.59,4.56,8.39C985.48,913.32,985.89,914.23,986.48,915.43Z"/><path class="cls-1" d="M1297.72,1384.91c-1.36-1.2-1.66-2.92-2.25-4.46q-6.72-17.58-13.35-35.2-4.26-11.27-8.53-22.54c-.47-1.25-.88-2.51-1.33-3.82.58-.91,1.06-1.79,1.65-2.58q15.49-21,31-42c.4-.54.84-1,1.27-1.55a.86.86,0,0,1,1.29,0c.62,1,1.26,2,1.8,3q11.54,21.73,23,43.48,16,30.17,31.94,60.36c.78,1.47,1.42,3,2.05,4.55.08.19-.2.65-.43.82a1.81,1.81,0,0,1-1,.24q-1.5.07-3,.07-29.89,0-59.78,0A12.3,12.3,0,0,1,1297.72,1384.91Z"/><path class="cls-1" d="M552.88,1380.61a1.36,1.36,0,0,1-.47-.15,2.85,2.85,0,0,1-.68-.71c-6.78-12-14.74-23.19-22.07-34.82-.8-1.27-1.61-2.55-2.38-3.84a1.91,1.91,0,0,1,0-1.92c.48-.88,1-1.75,1.53-2.6q26.41-42.2,52.83-84.38c.62-1,1.33-1.92,2-2.86a.87.87,0,0,1,1.29.07c.52.66,1.05,1.3,1.53,2q15,21.42,30,42.85c.48.69.94,1.38,1.38,2.1a1.69,1.69,0,0,1,0,1.89c-.55.84-1.16,1.64-1.78,2.43L556,1377.51c-.72.92-1.47,1.83-2.25,2.71C553.54,1380.43,553.16,1380.48,552.88,1380.61Z"/><path class="cls-1" d="M801.36,718.91c-3.17-1.5-6.51-3.05-9.8-4.69a3.46,3.46,0,0,1-1.33-1.43,23.49,23.49,0,0,1-1.15-2.78q-10.89-28.09-21.78-56.18c-.42-1.09-.78-2.2-1.22-3.45.63-1.3,1.24-2.67,1.94-4q15.9-30.23,31.82-60.44a14.63,14.63,0,0,1,.7-1.33c.53-.79.74-2.1,2-2,.87.1,1.06,1.19,1.37,1.92q6.82,15.93,13.59,31.87l16.34,38.34c.33.77.58,1.58,1,2.31a5.23,5.23,0,0,1-.25,5.64c-8,13.76-15.83,27.59-23.73,41.4q-3.74,6.54-7.49,13.07A3,3,0,0,1,801.36,718.91Z"/><path class="cls-1" d="M965.8,1385.26q-21.88,0-43.76,0a33.3,33.3,0,0,1-4-.31c-.18,0-.4-.51-.42-.8a1.7,1.7,0,0,1,.26-.95c.69-1.15,1.41-2.28,2.14-3.4l53.71-82.64c.55-.84,1.06-1.71,1.65-2.53.47-.66.81-1.64,1.74-1.62,1.3,0,1.29,1.35,1.72,2.18.53,1,.93,2.15,1.37,3.24l27.45,67.52c2.08,5.12,4.18,10.24,6.24,15.37a23.36,23.36,0,0,1,.74,2.38,1.29,1.29,0,0,1-1.08,1.41c-.67.06-1.33.15-2,.15-2,0-4,0-6,0Z"/><path class="cls-1" d="M606.34,705.38c-.46-1-1-2.06-1.41-3.14q-12.19-29.74-24.36-59.48c-1.75-4.26-1.64-3.6-.11-7.6q13.35-34.94,26.74-69.87a23.93,23.93,0,0,1,1.24-2.72c.12-.23.54-.33.84-.43.1,0,.32.1.38.21.46.89.94,1.77,1.32,2.69q10.57,26.06,21.12,52.12a19.34,19.34,0,0,1,.9,2.34,10.29,10.29,0,0,1,.32,2.46,14.57,14.57,0,0,1-.26,2.5q-1.64,9.91-3.3,19.81c-1.21,7.26-2.46,14.52-3.61,21.8-1.2,7.62-1.16,7.62-5,14.55q-6,11-12.11,22a20.84,20.84,0,0,1-1.63,2.49C607.29,705.31,606.84,705.27,606.34,705.38Z"/><path class="cls-1" d="M748.75,916.45c-.66,1-1.08,1.68-1.59,2.33q-12.26,15.64-24.53,31.27c-.31.4-.62.79-1,1.17a2.82,2.82,0,0,1-2.2,1q-5.53-.14-11.06-.35a1.92,1.92,0,0,1-1.63-1c-.49-.88-1-1.76-1.44-2.65q-13-25.25-26-50.51a8.62,8.62,0,0,1-1.45-3.89c.46-.71,1-1.58,1.55-2.39q15.18-21,30.38-42c.49-.68,1.06-1.3,1.6-1.93a.92.92,0,0,1,1.3,0c.76,1.29,1.56,2.57,2.25,3.9q12.47,23.84,24.9,47.7,3.37,6.46,6.74,12.93C747.27,913.42,747.92,914.77,748.75,916.45Z"/><path class="cls-1" d="M490,1383.77q-23.36.13-46.72.26c-1.16,0-2.33-.11-3.5-.19-.34,0-.74-.93-.54-1.22.56-.83,1.09-1.68,1.71-2.46q26-32.9,52.06-65.79a19.33,19.33,0,0,1,2.05-2.17.91.91,0,0,1,.9,0,12.35,12.35,0,0,1,1.58,1.92c2.66,4.06,5.29,8.14,7.93,12.22l31.69,48.89a31.75,31.75,0,0,1,1.88,3c.79,1.59,2.4,2.85,2,4.92-1.54.88-3.24.5-4.86.51q-23.11,0-46.22,0Z"/><path class="cls-1" d="M190.39,1366.83c-2.55,5-5.35,9.77-8.1,14.56a2.35,2.35,0,0,1-2.09,1.17c-1.34,0-2.68,0-4,0l-55.74-1a18.58,18.58,0,0,1-2-.22c-.41-.05-.73-.81-.49-1.22.58-1,1.14-2,1.77-3q21.77-33.76,43.57-67.5c.72-1.12,1.55-2.16,2.35-3.23a.92.92,0,0,1,1.3.14c.15.29.34.58.46.88q.67,1.62,1.31,3.26,10.08,26,20.14,51.94C189.42,1364,189.88,1365.41,190.39,1366.83Z"/><path class="cls-1" d="M453.63,1088.85c-1.15.53-1.59,1.67-2.2,2.64q-8.77,13.77-17.49,27.57-7.13,11.24-14.28,22.47c-.61,1-1,2.15-2.38,2.68a5.13,5.13,0,0,1,0-1.43q1.82-5.74,3.71-11.46,12.48-37.65,25-75.28a44.32,44.32,0,0,1,1.69-4.15c.07-.15.62-.2.88-.1a1.67,1.67,0,0,1,.72.65c.75,1.11,1.47,2.24,2.18,3.37L493,1122.21q.8,1.28,1.58,2.57c1.44,2.39,1.45,2.52-.36,4.85q-4.77,6.15-9.6,12.26a11.59,11.59,0,0,1-1.77,1.74.88.88,0,0,1-.85-.16,27.74,27.74,0,0,1-1.8-3q-8.58-17-17.13-34.11-3.94-7.85-7.9-15.7C454.85,1089.93,454.52,1089.15,453.63,1088.85Z"/><path class="cls-1" d="M339.82,1044.85c.48-.62,1-1.23,1.44-1.85a1.2,1.2,0,0,1,1.14-.63l-.09-.09a2.85,2.85,0,0,1-.53,1.84,1.46,1.46,0,0,1-2.06.66Z"/><path class="cls-1" d="M918.43,695.76c0,.06-.23,1-.23,1s-.22-.27-.19-.33a4.88,4.88,0,0,1,.49-.73Z"/><path class="cls-1" d="M339.72,1044.78c.91,1,.33,2,.11,3.06l.07.07a3.46,3.46,0,0,1-.06-3Z"/><path class="cls-1" d="M337.69,1047.77c0,1.28,0,1.41-.81,2.06l.09.14a2.89,2.89,0,0,0,.78-2.11Z"/><path class="cls-1" d="M337.08,1052.89c0-.28.12-.64,0-.84A2,2,0,0,1,337,1050l-.11-.16c0,.56.1,1.15.13,1.73s0,.88,0,1.32Z"/><path class="cls-1" d="M334.59,1055.49c.08-.79.17-1.57.28-2.34l-.11,0a3.22,3.22,0,0,1-.29,2.51Z"/><path class="cls-1" d="M1263.27,1324.79c0,.13.09.27.14.4s.12.26.18.38c-.29.11-.42,0-.36-.45a2.52,2.52,0,0,1,.12-.43Z"/><path class="cls-1" d="M337,1052.88l-2.25.23.09,0c.71-.1,1.44-.19,2.19-.26Z"/><path class="cls-1" d="M337.76,1047.85c.7-.15,1.41-.48,2.12,0l0-.06a2.07,2.07,0,0,1-2.13,0Z"/><path class="cls-1" d="M334.47,1055.61l-.18-.15.09.21.22-.18Z"/><path class="cls-1" d="M331.89,1058.53a2.55,2.55,0,0,0,.41.06c.13-.43,0-.51-.32-.23Z"/><path class="cls-1" d="M332,1058.36l.08.31c.26-.25.21-.3-.16-.15Z"/></svg>